<svg xmlns="http://www.w3.org/2000/svg" xmlns:xlink="http://www.w3.org/1999/xlink" width="420" height="80" viewBox="0 0 420 80"><defs><linearGradient id="a" x1="0.5" x2="0.5" y2="1" gradientUnits="objectBoundingBox"><stop offset="0" stop-color="#ff2d20"/><stop offset="1" stop-color="#c900ae"/></linearGradient><clipPath id="e"><rect width="420" height="80"/></clipPath></defs><g id="d" clip-path="url(#e)"><g transform="translate(85 53)"><path d="M2.875,0V-22.844H7.719V-4h9.266V0Zm28.8,0L30.75-2.375h-.125a7.039,7.039,0,0,1-2.477,2.1,8,8,0,0,1-3.32.586,5.369,5.369,0,0,1-3.961-1.437,5.52,5.52,0,0,1-1.445-4.094,4.61,4.61,0,0,1,1.945-4.1,11.272,11.272,0,0,1,5.867-1.461l3.031-.094v-.766q0-2.656-2.719-2.656a12.389,12.389,0,0,0-4.922,1.266L21.047-16.25a14.2,14.2,0,0,1,6.688-1.578A8.33,8.33,0,0,1,33.125-16.3,5.659,5.659,0,0,1,35-11.641V0ZM30.266-8.094l-1.844.063a5.9,5.9,0,0,0-3.094.75,2.356,2.356,0,0,0-1.016,2.094q0,2.016,2.313,2.016a3.662,3.662,0,0,0,2.648-.953,3.348,3.348,0,0,0,.992-2.531Zm19.391-9.7a7.685,7.685,0,0,1,1.609.141l-.359,4.469a5.459,5.459,0,0,0-1.406-.156,5.054,5.054,0,0,0-3.555,1.172,4.236,4.236,0,0,0-1.273,3.281V0H39.906V-17.469h3.609l.7,2.938h.234a6.567,6.567,0,0,1,2.2-2.367A5.413,5.413,0,0,1,49.656-17.8ZM65.531,0l-.922-2.375h-.125a7.039,7.039,0,0,1-2.477,2.1,8,8,0,0,1-3.32.586,5.369,5.369,0,0,1-3.961-1.437,5.52,5.52,0,0,1-1.445-4.094,4.61,4.61,0,0,1,1.945-4.1,11.272,11.272,0,0,1,5.867-1.461l3.031-.094v-.766q0-2.656-2.719-2.656a12.389,12.389,0,0,0-4.922,1.266L54.906-16.25a14.2,14.2,0,0,1,6.688-1.578A8.33,8.33,0,0,1,66.984-16.3a5.659,5.659,0,0,1,1.875,4.656V0ZM64.125-8.094l-1.844.063a5.9,5.9,0,0,0-3.094.75,2.356,2.356,0,0,0-1.016,2.094q0,2.016,2.313,2.016a3.662,3.662,0,0,0,2.648-.953,3.348,3.348,0,0,0,.992-2.531ZM77.922,0,71.266-17.469H76.25l3.375,9.953a17.76,17.76,0,0,1,.7,3.578h.094a15.56,15.56,0,0,1,.7-3.578l3.359-9.953h4.984L82.813,0ZM99.2-14.406a3.023,3.023,0,0,0-2.375.961,4.447,4.447,0,0,0-.984,2.727h6.688a3.973,3.973,0,0,0-.922-2.727A3.121,3.121,0,0,0,99.2-14.406ZM99.875.313a9.016,9.016,0,0,1-6.594-2.328,8.815,8.815,0,0,1-2.375-6.594A9.7,9.7,0,0,1,93.1-15.4a7.817,7.817,0,0,1,6.07-2.4,7.694,7.694,0,0,1,5.766,2.109A7.98,7.98,0,0,1,107-9.859v2.313H95.734a4.587,4.587,0,0,0,1.2,3.172,4.233,4.233,0,0,0,3.156,1.141,13.1,13.1,0,0,0,2.984-.328,14.933,14.933,0,0,0,2.938-1.047V-.922a11.19,11.19,0,0,1-2.672.93A16.846,16.846,0,0,1,99.875.313ZM115.641,0h-4.766V-24.312h4.766Zm14.047-22.844h6.266q4.234,0,6.219,1.438a5.011,5.011,0,0,1,1.984,4.344,4.7,4.7,0,0,1-1.211,3.3,5.9,5.9,0,0,1-3.539,1.7v.094a6.9,6.9,0,0,1,4.023,1.727,5.044,5.044,0,0,1,1.289,3.68A5.905,5.905,0,0,1,142.625-1.7,9.184,9.184,0,0,1,136.688,0h-7Zm1.594,10.172h5.031a8.026,8.026,0,0,0,4.68-1.07,3.877,3.877,0,0,0,1.461-3.352,3.614,3.614,0,0,0-1.648-3.312,9.4,9.4,0,0,0-4.914-1.031h-4.609Zm0,1.406v9.859h5.375Q143-1.406,143-6.562q0-4.7-6.687-4.7Zm24.766-6.047a13.292,13.292,0,0,1,2.313.219l-.3,1.484a9.05,9.05,0,0,0-2.2-.266,4.278,4.278,0,0,0-3.562,1.844,7.516,7.516,0,0,0-1.391,4.656V0h-1.547V-16.984h1.313l.156,3.063h.109a7.2,7.2,0,0,1,2.234-2.633A5.234,5.234,0,0,1,156.047-17.312ZM168.672.313A7.4,7.4,0,0,1,162.9-1.969a9.169,9.169,0,0,1-2.07-6.391,9.963,9.963,0,0,1,2-6.508,6.6,6.6,0,0,1,5.391-2.445,5.82,5.82,0,0,1,4.734,2.094,8.646,8.646,0,0,1,1.734,5.688v1.25H162.453a8.035,8.035,0,0,0,1.633,5.344,5.747,5.747,0,0,0,4.586,1.844,14.224,14.224,0,0,0,2.555-.2,15.525,15.525,0,0,0,2.789-.875V-.766a12.44,12.44,0,0,1-2.656.852A14.743,14.743,0,0,1,168.672.313Zm-.453-16.25a5.089,5.089,0,0,0-3.937,1.617,7.627,7.627,0,0,0-1.734,4.664h10.5a7.406,7.406,0,0,0-1.281-4.617A4.226,4.226,0,0,0,168.219-15.937ZM189.688,0,189.3-2.687h-.125a8.066,8.066,0,0,1-2.633,2.32,7.033,7.033,0,0,1-3.2.68,5.528,5.528,0,0,1-3.891-1.281,4.583,4.583,0,0,1-1.391-3.547,4.377,4.377,0,0,1,2.07-3.859,11.257,11.257,0,0,1,5.992-1.453l3.234-.094v-1.125a5.776,5.776,0,0,0-.984-3.656,3.817,3.817,0,0,0-3.172-1.234,10.609,10.609,0,0,0-4.891,1.313l-.578-1.344a12.943,12.943,0,0,1,5.531-1.312,5.514,5.514,0,0,1,4.18,1.453,6.384,6.384,0,0,1,1.383,4.531V0Zm-6.25-1.094a5.829,5.829,0,0,0,4.289-1.555,5.806,5.806,0,0,0,1.57-4.32V-8.641l-2.969.125a11.215,11.215,0,0,0-5.1,1.117A3.218,3.218,0,0,0,179.7-4.453a3.168,3.168,0,0,0,.977,2.477A3.969,3.969,0,0,0,183.438-1.094Zm19.109-16.219a7.052,7.052,0,0,1,3.188.672,6.344,6.344,0,0,1,2.406,2.3h.094q-.094-1.969-.094-3.859v-6.109h1.531V0h-1.016l-.391-2.594h-.125A6.285,6.285,0,0,1,202.578.313,6.663,6.663,0,0,1,197.2-1.875q-1.859-2.188-1.859-6.375,0-4.406,1.844-6.734A6.429,6.429,0,0,1,202.547-17.312Zm0,1.406a4.805,4.805,0,0,0-4.18,1.953,9.679,9.679,0,0,0-1.4,5.672q0,7.219,5.609,7.219A5.091,5.091,0,0,0,206.8-2.734q1.344-1.672,1.344-5.516v-.266q0-3.937-1.32-5.664A5.039,5.039,0,0,0,202.547-15.906ZM222.156.313a7.273,7.273,0,0,1-5.7-2.3,9.251,9.251,0,0,1-2.062-6.406,9.406,9.406,0,0,1,2.141-6.57,7.527,7.527,0,0,1,5.859-2.352,11.781,11.781,0,0,1,4.219.766l-.422,1.375a12.383,12.383,0,0,0-3.828-.734,5.813,5.813,0,0,0-4.734,1.93,8.459,8.459,0,0,0-1.609,5.555,8.2,8.2,0,0,0,1.609,5.383,5.517,5.517,0,0,0,4.5,1.945,11.045,11.045,0,0,0,4.3-.828V-.484A9.738,9.738,0,0,1,222.156.313Zm15.109-17.625a13.292,13.292,0,0,1,2.313.219l-.3,1.484a9.05,9.05,0,0,0-2.2-.266,4.278,4.278,0,0,0-3.562,1.844,7.516,7.516,0,0,0-1.391,4.656V0h-1.547V-16.984h1.313l.156,3.063h.109a7.2,7.2,0,0,1,2.234-2.633A5.234,5.234,0,0,1,237.266-17.312Zm7.109.328v11a5.372,5.372,0,0,0,1.078,3.727A4.352,4.352,0,0,0,248.8-1.094a5.837,5.837,0,0,0,4.461-1.531q1.43-1.531,1.43-4.984v-9.375h1.531V0h-1.312l-.281-2.344h-.094Q252.875.313,248.641.313q-5.8,0-5.8-6.2V-16.984ZM283.125,0V-11.141a5.547,5.547,0,0,0-.969-3.625,3.68,3.68,0,0,0-2.969-1.141,4.846,4.846,0,0,0-3.859,1.438,6.777,6.777,0,0,0-1.25,4.516V0H272.5V-11.609q0-4.3-3.937-4.3a4.641,4.641,0,0,0-3.891,1.555q-1.219,1.555-1.219,4.977V0h-1.547V-16.984h1.281l.328,2.328h.094a4.869,4.869,0,0,1,2-1.961,5.955,5.955,0,0,1,2.859-.7q4.016,0,5.156,3.016h.063a5.774,5.774,0,0,1,2.227-2.234,6.408,6.408,0,0,1,3.18-.781,5.45,5.45,0,0,1,4.172,1.484q1.391,1.484,1.391,4.719V0Zm14.2-17.312A6.479,6.479,0,0,1,302.7-15.07q1.8,2.242,1.8,6.555a9.993,9.993,0,0,1-1.9,6.531,6.537,6.537,0,0,1-5.336,2.3A7.014,7.014,0,0,1,294-.437a5.719,5.719,0,0,1-2.3-2.125h-.141L291.125,0h-.969V-24.312H291.7V-18.2q0,1.375-.062,2.531l-.047,1.328h.109a6.2,6.2,0,0,1,2.336-2.25A6.987,6.987,0,0,1,297.328-17.312Zm-.031,1.406q-3,0-4.3,1.719t-1.3,5.672v.266q0,3.844,1.352,5.516a5.1,5.1,0,0,0,4.211,1.672,4.833,4.833,0,0,0,4.188-1.945,9.348,9.348,0,0,0,1.406-5.539Q302.859-15.906,297.3-15.906ZM319.734-4.422A4.037,4.037,0,0,1,318-.914,8.442,8.442,0,0,1,313.078.313a11.738,11.738,0,0,1-5.406-1.047V-2.406a11.932,11.932,0,0,0,5.406,1.281,7.132,7.132,0,0,0,3.82-.836,2.541,2.541,0,0,0,1.3-2.227,2.713,2.713,0,0,0-1.039-2.156,11.426,11.426,0,0,0-3.414-1.719,19.556,19.556,0,0,1-3.578-1.586,4.944,4.944,0,0,1-1.555-1.5,3.768,3.768,0,0,1-.523-2.039,3.483,3.483,0,0,1,1.6-3.016,7.781,7.781,0,0,1,4.477-1.109,13.4,13.4,0,0,1,5.219,1.031l-.578,1.406a12.239,12.239,0,0,0-4.641-1.031,6.72,6.72,0,0,0-3.3.688,2.11,2.11,0,0,0-1.219,1.906,2.639,2.639,0,0,0,.945,2.125,13.179,13.179,0,0,0,3.7,1.781,18.182,18.182,0,0,1,3.344,1.492,4.861,4.861,0,0,1,1.57,1.508A3.687,3.687,0,0,1,319.734-4.422Z" stroke="none"/><path d="M 313.0781555175781 0.3125 C 315.2031555175781 0.3125 316.8437805175781 -0.0963333323597908 318.0000305175781 -0.9140416383743286 C 319.1562805175781 -1.731750011444092 319.7344055175781 -2.901041746139526 319.7344055175781 -4.421875 C 319.7344055175781 -5.182291507720947 319.5599060058594 -5.84375 319.2109375 -6.40625 C 318.8619689941406 -6.96875 318.3385314941406 -7.471333503723145 317.6406555175781 -7.914041519165039 C 316.9427185058594 -8.356749534606934 315.8281555175781 -8.854166984558105 314.2969055175781 -9.40625 C 312.4635314941406 -10.0625 311.2317810058594 -10.65625 310.6015625 -11.1875 C 309.9713439941406 -11.71875 309.6562805175781 -12.42708301544189 309.6562805175781 -13.3125 C 309.6562805175781 -14.125 310.0625305175781 -14.76041698455811 310.8750305175781 -15.21875 C 311.6875305175781 -15.67708301544189 312.7864685058594 -15.90625 314.1719055175781 -15.90625 C 315.5989685058594 -15.90625 317.1458435058594 -15.5625 318.8125305175781 -14.875 L 319.3906555175781 -16.28125 C 317.7447814941406 -16.96875 316.0052185058594 -17.3125 314.1719055175781 -17.3125 C 312.2552185058594 -17.3125 310.7630310058594 -16.94270896911621 309.6953125 -16.203125 C 308.6275939941406 -15.46354198455811 308.0937805175781 -14.45833301544189 308.0937805175781 -13.1875 C 308.0937805175781 -12.38541698455811 308.2682189941406 -11.70570850372314 308.6171875 -11.14841651916504 C 308.9661560058594 -10.59112453460693 309.4844055175781 -10.09112453460693 310.1719055175781 -9.648416519165039 C 310.8594055175781 -9.205750465393066 312.0520935058594 -8.677083015441895 313.7500305175781 -8.0625 C 315.3333435058594 -7.5 316.4713439941406 -6.927083492279053 317.1640625 -6.34375 C 317.8567810058594 -5.760416507720947 318.2031555175781 -5.041666507720947 318.2031555175781 -4.1875 C 318.2031555175781 -3.260416746139526 317.7682189941406 -2.518208265304565 316.8984375 -1.960916638374329 C 316.0286560058594 -1.403625011444092 314.7552185058594 -1.125 313.0781555175781 -1.125 C 311.1822814941406 -1.125 309.3802185058594 -1.552083373069763 307.6719055175781 -2.40625 L 307.6719055175781 -0.734375 C 309.0052185058594 -0.0364583320915699 310.8072814941406 0.3125 313.0781555175781 0.3125 M 297.2656555175781 0.3125 C 299.5572814941406 0.3125 301.3359375 -0.453125 302.6015625 -1.984375 C 303.8671875 -3.515625 304.5000305175781 -5.692708492279053 304.5000305175781 -8.515625 C 304.5000305175781 -11.390625 303.8984375 -13.57549953460693 302.6953125 -15.07029151916504 C 301.4921875 -16.56508255004883 299.7031555175781 -17.3125 297.3281555175781 -17.3125 C 296.0469055175781 -17.3125 294.9505310058594 -17.07291603088379 294.0390625 -16.59375 C 293.1275939941406 -16.11458396911621 292.3489685058594 -15.36458301544189 291.7031555175781 -14.34375 L 291.5937805175781 -14.34375 L 291.6406555175781 -15.671875 C 291.6822814941406 -16.44270896911621 291.7031555175781 -17.28645896911621 291.7031555175781 -18.203125 L 291.7031555175781 -24.3125 L 290.1562805175781 -24.3125 L 290.1562805175781 -1.77635683940025e-15 L 291.1250305175781 -1.77635683940025e-15 L 291.5625305175781 -2.5625 L 291.7031555175781 -2.5625 C 292.2656555175781 -1.645833373069763 293.0312805175781 -0.9375 294.0000305175781 -0.4375 C 294.9687805175781 0.0625 296.0572814941406 0.3125 297.2656555175781 0.3125 M 297.2969055175781 -15.90625 C 301.0052185058594 -15.90625 302.8594055175781 -13.453125 302.8594055175781 -8.546875 C 302.8594055175781 -6.151041507720947 302.3906555175781 -4.304666519165039 301.4531555175781 -3.007791757583618 C 300.5156555175781 -1.710916638374329 299.1197814941406 -1.0625 297.2656555175781 -1.0625 C 295.3594055175781 -1.0625 293.9557189941406 -1.619791626930237 293.0546875 -2.734375 C 292.1536560058594 -3.848958253860474 291.7031555175781 -5.6875 291.7031555175781 -8.25 L 291.7031555175781 -8.515625 C 291.7031555175781 -11.15104198455811 292.1354064941406 -13.04166698455811 293.0000305175781 -14.1875 C 293.8645935058594 -15.33333301544189 295.2969055175781 -15.90625 297.2969055175781 -15.90625 M 248.6406402587891 0.3125 C 251.4635620117188 0.3125 253.4271087646484 -0.5729166865348816 254.5312652587891 -2.34375 L 254.6250152587891 -2.34375 L 254.9062652587891 -1.77635683940025e-15 L 256.2187805175781 -1.77635683940025e-15 L 256.2187805175781 -16.984375 L 254.6875152587891 -16.984375 L 254.6875152587891 -7.609375 C 254.6875152587891 -5.307291507720947 254.2109375 -3.645833253860474 253.2578125 -2.625 C 252.3046875 -1.604166626930237 250.8177337646484 -1.09375 248.7968902587891 -1.09375 C 247.2864379882812 -1.09375 246.1718902587891 -1.481750011444092 245.4531402587891 -2.257791757583618 C 244.7343902587891 -3.033833265304565 244.3750152587891 -4.276041507720947 244.3750152587891 -5.984375 L 244.3750152587891 -16.984375 L 242.8437652587891 -16.984375 L 242.8437652587891 -5.890625 C 242.8437652587891 -1.755208373069763 244.7760620117188 0.3125 248.6406402587891 0.3125 M 222.1562652587891 0.3125 C 223.9166870117188 0.3125 225.3385620117188 0.046875 226.4218902587891 -0.484375 L 226.4218902587891 -1.921875 C 225.0989379882812 -1.369791626930237 223.6666870117188 -1.09375 222.1250152587891 -1.09375 C 220.1979370117188 -1.09375 218.6979370117188 -1.742166638374329 217.6250152587891 -3.039041757583618 C 216.5520629882812 -4.335916519165039 216.0156402587891 -6.130208492279053 216.0156402587891 -8.421875 C 216.0156402587891 -10.83854198455811 216.5520629882812 -12.69008350372314 217.6250152587891 -13.97654151916504 C 218.6979370117188 -15.26299953460693 220.2760620117188 -15.90625 222.3593902587891 -15.90625 C 223.4426879882812 -15.90625 224.7187652587891 -15.66145801544189 226.1875152587891 -15.171875 L 226.6093902587891 -16.546875 C 225.2656402587891 -17.05729103088379 223.8593902587891 -17.3125 222.3906402587891 -17.3125 C 219.9114379882812 -17.3125 217.9583129882812 -16.52862548828125 216.5312652587891 -14.96091651916504 C 215.1041870117188 -13.39320850372314 214.3906402587891 -11.203125 214.3906402587891 -8.390625 C 214.3906402587891 -5.651041507720947 215.0781402587891 -3.515625 216.4531402587891 -1.984375 C 217.8281402587891 -0.453125 219.7291870117188 0.3125 222.1562652587891 0.3125 M 202.5781402587891 0.3125 C 204.9948120117188 0.3125 206.8489379882812 -0.65625 208.1406402587891 -2.59375 L 208.2656402587891 -2.59375 L 208.6562652587891 -1.77635683940025e-15 L 209.6718902587891 -1.77635683940025e-15 L 209.6718902587891 -24.3125 L 208.1406402587891 -24.3125 L 208.1406402587891 -18.203125 C 208.1406402587891 -16.94270896911621 208.1718902587891 -15.65625 208.2343902587891 -14.34375 L 208.1406402587891 -14.34375 C 207.4323120117188 -15.42708301544189 206.6301879882812 -16.19270896911621 205.7343902587891 -16.640625 C 204.8385620117188 -17.08854103088379 203.7760620117188 -17.3125 202.5468902587891 -17.3125 C 200.2031402587891 -17.3125 198.4166870117188 -16.53645896911621 197.1875152587891 -14.984375 C 195.9583129882812 -13.43229198455811 195.3437652587891 -11.1875 195.3437652587891 -8.25 C 195.3437652587891 -5.458333492279053 195.9635620117188 -3.333333253860474 197.2031402587891 -1.875 C 198.4426879882812 -0.4166666567325592 200.2343902587891 0.3125 202.5781402587891 0.3125 M 202.5468902587891 -15.90625 C 204.5156402587891 -15.90625 205.9401092529297 -15.33070850372314 206.8203125 -14.17966651916504 C 207.7005157470703 -13.02862453460693 208.1406402587891 -11.140625 208.1406402587891 -8.515625 L 208.1406402587891 -8.25 C 208.1406402587891 -5.6875 207.6926879882812 -3.848958253860474 206.7968902587891 -2.734375 C 205.9010620117188 -1.619791626930237 204.4948120117188 -1.0625 202.5781402587891 -1.0625 C 198.8385620117188 -1.0625 196.9687652587891 -3.46875 196.9687652587891 -8.28125 C 196.9687652587891 -10.76041698455811 197.4348907470703 -12.65104198455811 198.3671875 -13.953125 C 199.2994842529297 -15.25520801544189 200.6926879882812 -15.90625 202.5468902587891 -15.90625 M 183.3437652587891 0.3125 C 184.5729370117188 0.3125 185.6380157470703 0.085958331823349 186.5390625 -0.367166668176651 C 187.4401092529297 -0.8202916383743286 188.3176879882812 -1.59375 189.1718902587891 -2.6875 L 189.2968902587891 -2.6875 L 189.6875152587891 -1.77635683940025e-15 L 190.8281402587891 -1.77635683940025e-15 L 190.8281402587891 -11.296875 C 190.8281402587891 -13.34895801544189 190.3671875 -14.859375 189.4453125 -15.828125 C 188.5234375 -16.796875 187.1301879882812 -17.28125 185.2656402587891 -17.28125 C 183.4426879882812 -17.28125 181.5989379882812 -16.84375 179.7343902587891 -15.96875 L 180.3125152587891 -14.625 C 182.0000152587891 -15.5 183.6301879882812 -15.9375 185.2031402587891 -15.9375 C 186.6614379882812 -15.9375 187.7187652587891 -15.52604198455811 188.3750152587891 -14.703125 C 189.0312652587891 -13.88020801544189 189.3593902587891 -12.66145801544189 189.3593902587891 -11.046875 L 189.3593902587891 -9.921875 L 186.1250152587891 -9.828125 C 183.5104370117188 -9.776041984558105 181.5130157470703 -9.291666984558105 180.1328125 -8.375 C 178.7526092529297 -7.458333492279053 178.0625152587891 -6.171875 178.0625152587891 -4.515625 C 178.0625152587891 -3.005208253860474 178.5260620117188 -1.822916626930237 179.4531402587891 -0.96875 C 180.3801879882812 -0.1145833358168602 181.6770629882812 0.3125 183.3437652587891 0.3125 M 189.2968902587891 -8.640625 L 189.2968902587891 -6.96875 C 189.2968902587891 -5.125 188.7734375 -3.684916734695435 187.7265625 -2.648416757583618 C 186.6796875 -1.611958384513855 185.2500152587891 -1.09375 183.4375152587891 -1.09375 C 182.2500152587891 -1.09375 181.3307342529297 -1.388000011444092 180.6796875 -1.976541638374329 C 180.0286407470703 -2.565083265304565 179.7031402587891 -3.390625 179.7031402587891 -4.453125 C 179.7031402587891 -5.786458492279053 180.2109375 -6.768208503723145 181.2265625 -7.398416519165039 C 182.2421875 -8.028624534606934 183.9426879882812 -8.401041984558105 186.3281402587891 -8.515625 L 189.2968902587891 -8.640625 M 168.6718902587891 0.3125 C 169.6510620117188 0.3125 170.5468902587891 0.2370000034570694 171.3593902587891 0.085958331823349 C 172.1718902587891 -0.0650833323597908 173.0573120117188 -0.3489583432674408 174.0156402587891 -0.765625 L 174.0156402587891 -2.171875 C 172.8906402587891 -1.723958373069763 171.9609375 -1.432291626930237 171.2265625 -1.296875 C 170.4921875 -1.161458373069763 169.6406402587891 -1.09375 168.6718902587891 -1.09375 C 166.6823120117188 -1.09375 165.1536407470703 -1.708333373069763 164.0859375 -2.9375 C 163.0182342529297 -4.166666507720947 162.4739379882812 -5.947916507720947 162.4531402587891 -8.28125 L 174.6875152587891 -8.28125 L 174.6875152587891 -9.53125 C 174.6875152587891 -11.92708301544189 174.1093902587891 -13.82291698455811 172.9531402587891 -15.21875 C 171.7968902587891 -16.61458396911621 170.2187652587891 -17.3125 168.2187652587891 -17.3125 C 165.9583129882812 -17.3125 164.1614379882812 -16.49737548828125 162.8281402587891 -14.86716651916504 C 161.4948120117188 -13.23695850372314 160.8281402587891 -11.06770801544189 160.8281402587891 -8.359375 C 160.8281402587891 -5.619791507720947 161.5182342529297 -3.489583253860474 162.8984375 -1.96875 C 164.2786407470703 -0.4479166567325592 166.2031402587891 0.3125 168.6718902587891 0.3125 M 168.2187652587891 -15.9375 C 169.7291870117188 -15.9375 170.9114379882812 -15.38279151916504 171.7656402587891 -14.27341651916504 C 172.6198120117188 -13.16404151916504 173.0468902587891 -11.625 173.0468902587891 -9.65625 L 162.5468902587891 -9.65625 C 162.7135620117188 -11.6875 163.2916870117188 -13.24216651916504 164.2812652587891 -14.32029151916504 C 165.2708129882812 -15.39841651916504 166.5833129882812 -15.9375 168.2187652587891 -15.9375 M 99.87502288818359 0.3125 C 101.2396011352539 0.3125 102.3958511352539 0.210958331823349 103.3437728881836 0.007833333685994148 C 104.2916870117188 -0.195291668176651 105.1823120117188 -0.5052083134651184 106.0156478881836 -0.921875 L 106.0156478881836 -4.609375 C 104.9948120117188 -4.130208492279053 104.0156478881836 -3.78125 103.0781478881836 -3.5625 C 102.1406478881836 -3.34375 101.1458511352539 -3.234375 100.0937728881836 -3.234375 C 98.73960113525391 -3.234375 97.68752288818359 -3.614583253860474 96.93752288818359 -4.375 C 96.18752288818359 -5.135416507720947 95.78647613525391 -6.192708492279053 95.73439788818359 -7.546875 L 107.0000228881836 -7.546875 L 107.0000228881836 -9.859375 C 107.0000228881836 -12.33854198455811 106.3125228881836 -14.28125 104.9375228881836 -15.6875 C 103.5625228881836 -17.09375 101.6406478881836 -17.796875 99.17189788818359 -17.796875 C 96.58856201171875 -17.796875 94.56510162353516 -16.99737548828125 93.1015625 -15.39841651916504 C 91.63802337646484 -13.79950046539307 90.90627288818359 -11.53645801544189 90.90627288818359 -8.609375 C 90.90627288818359 -5.765625 91.69793701171875 -3.567708253860474 93.28127288818359 -2.015625 C 94.86460113525391 -0.4635416567325592 97.06252288818359 0.3125 99.87502288818359 0.3125 M 99.20314788818359 -14.40625 C 100.2135620117188 -14.40625 101.0156478881836 -14.08591651916504 101.6093978881836 -13.44529151916504 C 102.2031478881836 -12.80466651916504 102.5104370117188 -11.89583301544189 102.5312728881836 -10.71875 L 95.84377288818359 -10.71875 C 95.92710113525391 -11.89583301544189 96.25522613525391 -12.80466651916504 96.82814788818359 -13.44529151916504 C 97.40106201171875 -14.08591651916504 98.19272613525391 -14.40625 99.20314788818359 -14.40625 M 58.68751907348633 0.3125 C 60.05210494995117 0.3125 61.15885543823242 0.117208331823349 62.0078125 -0.273416668176651 C 62.85676956176758 -0.6640416383743286 63.68231201171875 -1.364583373069763 64.48439788818359 -2.375 L 64.60939788818359 -2.375 L 65.53127288818359 -1.77635683940025e-15 L 68.85939788818359 -1.77635683940025e-15 L 68.85939788818359 -11.640625 C 68.85939788818359 -13.72395801544189 68.23439788818359 -15.27604198455811 66.98439788818359 -16.296875 C 65.73439788818359 -17.31770896911621 63.93751907348633 -17.828125 61.59376907348633 -17.828125 C 59.14585494995117 -17.828125 56.91668701171875 -17.30208396911621 54.90626907348633 -16.25 L 56.48439407348633 -13.03125 C 58.36981201171875 -13.875 60.01043701171875 -14.296875 61.40626907348633 -14.296875 C 63.21876907348633 -14.296875 64.12502288818359 -13.41145801544189 64.12502288818359 -11.640625 L 64.12502288818359 -10.875 L 61.09376907348633 -10.78125 C 58.47918701171875 -10.6875 56.5234375 -10.20049953460693 55.2265625 -9.320291519165039 C 53.9296875 -8.440125465393066 53.28126907348633 -7.072916507720947 53.28126907348633 -5.21875 C 53.28126907348633 -3.447916746139526 53.76301956176758 -2.083333253860474 54.7265625 -1.125 C 55.69010543823242 -0.1666666716337204 57.01043701171875 0.3125 58.68751907348633 0.3125 M 64.12502288818359 -8.09375 L 64.12502288818359 -6.65625 C 64.12502288818359 -5.604166507720947 63.79426956176758 -4.760416507720947 63.1328125 -4.125 C 62.47135543823242 -3.489583253860474 61.58856201171875 -3.171875 60.48439407348633 -3.171875 C 58.94272994995117 -3.171875 58.17189407348633 -3.84375 58.17189407348633 -5.1875 C 58.17189407348633 -6.125 58.51043701171875 -6.822916507720947 59.18751907348633 -7.28125 C 59.86460494995117 -7.739583492279053 60.89585494995117 -7.989583492279053 62.28126907348633 -8.03125 L 64.12502288818359 -8.09375 M 24.82814598083496 0.3125 C 26.19272994995117 0.3125 27.29947853088379 0.117208331823349 28.1484375 -0.273416668176651 C 28.99739646911621 -0.6640416383743286 29.82293701171875 -1.364583373069763 30.62502098083496 -2.375 L 30.75002098083496 -2.375 L 31.67189598083496 -1.77635683940025e-15 L 35.00001907348633 -1.77635683940025e-15 L 35.00001907348633 -11.640625 C 35.00001907348633 -13.72395801544189 34.37501907348633 -15.27604198455811 33.12501907348633 -16.296875 C 31.87502098083496 -17.31770896911621 30.07814598083496 -17.828125 27.73439598083496 -17.828125 C 25.28647994995117 -17.828125 23.05731201171875 -17.30208396911621 21.04689598083496 -16.25 L 22.62502098083496 -13.03125 C 24.51043701171875 -13.875 26.15106201171875 -14.296875 27.54689598083496 -14.296875 C 29.35939598083496 -14.296875 30.26564598083496 -13.41145801544189 30.26564598083496 -11.640625 L 30.26564598083496 -10.875 L 27.23439598083496 -10.78125 C 24.61981201171875 -10.6875 22.6640625 -10.20049953460693 21.3671875 -9.320291519165039 C 20.0703125 -8.440125465393066 19.42189598083496 -7.072916507720947 19.42189598083496 -5.21875 C 19.42189598083496 -3.447916746139526 19.90364646911621 -2.083333253860474 20.8671875 -1.125 C 21.83072853088379 -0.1666666716337204 23.15106201171875 0.3125 24.82814598083496 0.3125 M 30.26564598083496 -8.09375 L 30.26564598083496 -6.65625 C 30.26564598083496 -5.604166507720947 29.93489646911621 -4.760416507720947 29.2734375 -4.125 C 28.61197853088379 -3.489583253860474 27.72918701171875 -3.171875 26.62502098083496 -3.171875 C 25.08335494995117 -3.171875 24.31252098083496 -3.84375 24.31252098083496 -5.1875 C 24.31252098083496 -6.125 24.65106201171875 -6.822916507720947 25.32814598083496 -7.28125 C 26.00522994995117 -7.739583492279053 27.03647994995117 -7.989583492279053 28.42189598083496 -8.03125 L 30.26564598083496 -8.09375 M 284.6562805175781 -1.77635683940025e-15 L 284.6562805175781 -11.109375 C 284.6562805175781 -13.265625 284.1927185058594 -14.83854198455811 283.2656555175781 -15.828125 C 282.3385314941406 -16.81770896911621 280.9479064941406 -17.3125 279.0937805175781 -17.3125 C 277.9062805175781 -17.3125 276.8463439941406 -17.05208396911621 275.9140625 -16.53125 C 274.9817810058594 -16.01041603088379 274.2395935058594 -15.265625 273.6875305175781 -14.296875 L 273.6250305175781 -14.296875 C 272.8645935058594 -16.30729103088379 271.1458435058594 -17.3125 268.4687805175781 -17.3125 C 267.4270935058594 -17.3125 266.4739685058594 -17.08070755004883 265.6094055175781 -16.61716651916504 C 264.7447814941406 -16.15366744995117 264.0781555175781 -15.5 263.6094055175781 -14.65625 L 263.5156555175781 -14.65625 L 263.1875305175781 -16.984375 L 261.9062805175781 -16.984375 L 261.9062805175781 -1.77635683940025e-15 L 263.4531555175781 -1.77635683940025e-15 L 263.4531555175781 -9.375 C 263.4531555175781 -11.65625 263.8594055175781 -13.31508350372314 264.6719055175781 -14.35154151916504 C 265.4844055175781 -15.38799953460693 266.7812805175781 -15.90625 268.5625305175781 -15.90625 C 271.1875305175781 -15.90625 272.5000305175781 -14.47395801544189 272.5000305175781 -11.609375 L 272.5000305175781 -1.77635683940025e-15 L 274.0781555175781 -1.77635683940025e-15 L 274.0781555175781 -9.953125 C 274.0781555175781 -12.00520801544189 274.4947814941406 -13.51041698455811 275.3281555175781 -14.46875 C 276.1614685058594 -15.42708301544189 277.4479064941406 -15.90625 279.1875305175781 -15.90625 C 280.5208435058594 -15.90625 281.5104064941406 -15.52604198455811 282.1562805175781 -14.765625 C 282.8020935058594 -14.00520801544189 283.1250305175781 -12.796875 283.1250305175781 -11.140625 L 283.1250305175781 -1.77635683940025e-15 L 284.6562805175781 -1.77635683940025e-15 M 232.1250152587891 -1.77635683940025e-15 L 232.1250152587891 -9.375 C 232.1250152587891 -11.25 232.5885620117188 -12.80208301544189 233.5156402587891 -14.03125 C 234.4426879882812 -15.26041698455811 235.6301879882812 -15.875 237.0781402587891 -15.875 C 237.8385620117188 -15.875 238.5729370117188 -15.78645801544189 239.2812652587891 -15.609375 L 239.5781402587891 -17.09375 C 238.7551879882812 -17.23958396911621 237.9843902587891 -17.3125 237.2656402587891 -17.3125 C 236.1406402587891 -17.3125 235.1823120117188 -17.05987548828125 234.3906402587891 -16.55466651916504 C 233.5989379882812 -16.04945755004883 232.8541870117188 -15.171875 232.1562652587891 -13.921875 L 232.0468902587891 -13.921875 L 231.8906402587891 -16.984375 L 230.5781402587891 -16.984375 L 230.5781402587891 -1.77635683940025e-15 L 232.1250152587891 -1.77635683940025e-15 M 150.9062652587891 -1.77635683940025e-15 L 150.9062652587891 -9.375 C 150.9062652587891 -11.25 151.3698120117188 -12.80208301544189 152.2968902587891 -14.03125 C 153.2239379882812 -15.26041698455811 154.4114379882812 -15.875 155.8593902587891 -15.875 C 156.6198120117188 -15.875 157.3541870117188 -15.78645801544189 158.0625152587891 -15.609375 L 158.3593902587891 -17.09375 C 157.5364379882812 -17.23958396911621 156.7656402587891 -17.3125 156.0468902587891 -17.3125 C 154.9218902587891 -17.3125 153.9635620117188 -17.05987548828125 153.1718902587891 -16.55466651916504 C 152.3801879882812 -16.04945755004883 151.6354370117188 -15.171875 150.9375152587891 -13.921875 L 150.8281402587891 -13.921875 L 150.6718902587891 -16.984375 L 149.3593902587891 -16.984375 L 149.3593902587891 -1.77635683940025e-15 L 150.9062652587891 -1.77635683940025e-15 M 136.6875152587891 -1.77635683940025e-15 C 139.2500152587891 -1.77635683940025e-15 141.2291870117188 -0.5677083134651184 142.6250152587891 -1.703125 C 144.0208129882812 -2.838541746139526 144.7187652587891 -4.458333492279053 144.7187652587891 -6.5625 C 144.7187652587891 -8.135416984558105 144.2890625 -9.361958503723145 143.4296875 -10.24216651916504 C 142.5703125 -11.12237453460693 141.2291870117188 -11.69791698455811 139.4062652587891 -11.96875 L 139.4062652587891 -12.0625 C 140.9583129882812 -12.3125 142.1380157470703 -12.87758350372314 142.9453125 -13.75779151916504 C 143.7526092529297 -14.63799953460693 144.1562652587891 -15.73958301544189 144.1562652587891 -17.0625 C 144.1562652587891 -19 143.4948120117188 -20.44791603088379 142.1718902587891 -21.40625 C 140.8489379882812 -22.36458396911621 138.7760620117188 -22.84375 135.9531402587891 -22.84375 L 129.6875152587891 -22.84375 L 129.6875152587891 -1.77635683940025e-15 L 136.6875152587891 -1.77635683940025e-15 M 131.2812652587891 -11.265625 L 136.3125152587891 -11.265625 C 140.7708129882812 -11.265625 143.0000152587891 -9.697916984558105 143.0000152587891 -6.5625 C 143.0000152587891 -3.125 140.8854370117188 -1.40625 136.6562652587891 -1.40625 L 131.2812652587891 -1.40625 L 131.2812652587891 -11.265625 M 131.2812652587891 -21.4375 L 135.8906402587891 -21.4375 C 138.0676879882812 -21.4375 139.7057342529297 -21.09375 140.8046875 -20.40625 C 141.9036407470703 -19.71875 142.4531402587891 -18.61458396911621 142.4531402587891 -17.09375 C 142.4531402587891 -15.57291698455811 141.9661407470703 -14.45570850372314 140.9921875 -13.74216651916504 C 140.0182342529297 -13.02862453460693 138.4583129882812 -12.671875 136.3125152587891 -12.671875 L 131.2812652587891 -12.671875 L 131.2812652587891 -21.4375 M 115.6406478881836 -1.77635683940025e-15 L 115.6406478881836 -24.3125 L 110.8750228881836 -24.3125 L 110.8750228881836 -1.77635683940025e-15 L 115.6406478881836 -1.77635683940025e-15 M 82.81252288818359 -1.77635683940025e-15 L 89.46877288818359 -17.46875 L 84.48439788818359 -17.46875 L 81.12502288818359 -7.515625 C 80.70835113525391 -6.130208492279053 80.47397613525391 -4.9375 80.42189788818359 -3.9375 L 80.32814788818359 -3.9375 C 80.23439788818359 -5.0625 80.00002288818359 -6.255208492279053 79.62502288818359 -7.515625 L 76.25002288818359 -17.46875 L 71.26564788818359 -17.46875 L 77.92189788818359 -1.77635683940025e-15 L 82.81252288818359 -1.77635683940025e-15 M 44.67189407348633 -1.77635683940025e-15 L 44.67189407348633 -8.890625 C 44.67189407348633 -10.296875 45.09635543823242 -11.390625 45.9453125 -12.171875 C 46.79426956176758 -12.953125 47.97918701171875 -13.34375 49.50001907348633 -13.34375 C 50.05210494995117 -13.34375 50.52085494995117 -13.29166698455811 50.90626907348633 -13.1875 L 51.26564407348633 -17.65625 C 50.83856201171875 -17.75 50.30210494995117 -17.796875 49.65626907348633 -17.796875 C 48.57293701171875 -17.796875 47.5703125 -17.49737548828125 46.6484375 -16.89841651916504 C 45.7265625 -16.29945755004883 44.99481201171875 -15.51041698455811 44.45314407348633 -14.53125 L 44.21876907348633 -14.53125 L 43.51564407348633 -17.46875 L 39.90626907348633 -17.46875 L 39.90626907348633 -1.77635683940025e-15 L 44.67189407348633 -1.77635683940025e-15 M 16.98439598083496 -1.77635683940025e-15 L 16.98439598083496 -4 L 7.718770980834961 -4 L 7.718770980834961 -22.84375 L 2.875020742416382 -22.84375 L 2.875020742416382 -1.77635683940025e-15 L 16.98439598083496 -1.77635683940025e-15 M 313.0781555175781 0.8125 C 310.7363586425781 0.8125 308.8393859863281 0.4410833418369293 307.4400329589844 -0.2913750112056732 L 307.1719055175781 -0.4317499995231628 L 307.1719055175781 -3.215250015258789 L 307.8955078125 -2.853458404541016 C 309.5258178710938 -2.038333415985107 311.2694702148438 -1.625 313.0781555175781 -1.625 C 314.6502380371094 -1.625 315.8448181152344 -1.879666686058044 316.6286926269531 -2.381916761398315 C 317.3516845703125 -2.845166683197021 317.7031555175781 -3.435750007629395 317.7031555175781 -4.1875 C 317.7031555175781 -4.893125057220459 317.4214782714844 -5.473333358764648 316.8419799804688 -5.961291790008545 C 316.1985168457031 -6.503166675567627 315.1018981933594 -7.051624774932861 313.5826416015625 -7.591333389282227 C 311.8304443359375 -8.225583076477051 310.6271362304688 -8.76058292388916 309.9012145996094 -9.228041648864746 C 309.1546020507812 -9.708791732788086 308.5800170898438 -10.265625 308.1933898925781 -10.88304138183594 C 307.7955322265625 -11.51850032806396 307.5937805175781 -12.29383373260498 307.5937805175781 -13.1875 C 307.5937805175781 -14.62616634368896 308.2050170898438 -15.77908325195312 309.4106140136719 -16.61416625976562 C 310.5585632324219 -17.40933418273926 312.1604919433594 -17.8125 314.1719055175781 -17.8125 C 316.0631408691406 -17.8125 317.8838195800781 -17.45254135131836 319.5833435058594 -16.74262428283691 L 320.0421447753906 -16.55100059509277 L 319.0845947265625 -14.22187519073486 L 318.6218566894531 -14.41279125213623 C 317.0237731933594 -15.07199954986572 315.5265502929688 -15.40625 314.1719055175781 -15.40625 C 312.8800659179688 -15.40625 311.853515625 -15.1966667175293 311.1206970214844 -14.7832498550415 C 310.4627380371094 -14.41208362579346 310.1562805175781 -13.94474983215332 310.1562805175781 -13.3125 C 310.1562805175781 -12.57520866394043 310.4073486328125 -12.00516700744629 310.9237976074219 -11.56979179382324 C 311.5054016113281 -11.07954120635986 312.6969299316406 -10.51000022888184 314.4653930664062 -9.876999855041504 C 316.0468139648438 -9.306833267211914 317.1727294921875 -8.802958488464355 317.9084777832031 -8.336250305175781 C 318.6672973632812 -7.854875087738037 319.2484741210938 -7.294208526611328 319.6358032226562 -6.669833183288574 C 320.0330200195312 -6.02958345413208 320.2344055175781 -5.273250102996826 320.2344055175781 -4.421875 C 320.2344055175781 -2.736416578292847 319.5797729492188 -1.418874979019165 318.2887268066406 -0.5058333277702332 C 317.0517578125 0.3689583241939545 315.2986755371094 0.8125 313.0781555175781 0.8125 Z M 297.2656555175781 0.8125 C 295.9823913574219 0.8125 294.8065185546875 0.5414166450500488 293.7706909179688 0.006791666615754366 C 293.0368957519531 -0.3719325363636017 292.4051208496094 -0.8668769598007202 291.8833618164062 -1.470623135566711 L 291.5469055175781 0.5 L 289.6562805175781 0.5 L 289.6562805175781 -24.8125 L 292.2031555175781 -24.8125 L 292.2031555175781 -18.203125 C 292.2031555175781 -17.32198524475098 292.1836242675781 -16.49565887451172 292.1452026367188 -15.74520015716553 C 292.6436767578125 -16.28498077392578 293.1992797851562 -16.71716499328613 293.806396484375 -17.03633308410645 C 294.7861022949219 -17.5513744354248 295.9709777832031 -17.8125 297.3281555175781 -17.8125 C 299.8508911132812 -17.8125 301.7876892089844 -16.99537467956543 303.0848083496094 -15.38379192352295 C 304.3556518554688 -13.80487537384033 305.0000305175781 -11.49408340454102 305.0000305175781 -8.515625 C 305.0000305175781 -5.586541652679443 304.3227233886719 -3.281958341598511 302.9869689941406 -1.665833353996277 C 301.6277160644531 -0.02133333310484886 299.7028198242188 0.8125 297.2656555175781 0.8125 Z M 297.2969055175781 -15.40625 C 295.44580078125 -15.40625 294.1708679199219 -14.90908336639404 293.3991394042969 -13.88633346557617 C 292.6055297851562 -12.83462524414062 292.2031555175781 -11.02766704559326 292.2031555175781 -8.515625 L 292.2031555175781 -8.25 C 292.2031555175781 -5.816791534423828 292.6204833984375 -4.06683349609375 293.4435119628906 -3.048708438873291 C 294.2519836425781 -2.048624992370605 295.5022277832031 -1.5625 297.2656555175781 -1.5625 C 298.9652404785156 -1.5625 300.202392578125 -2.131083250045776 301.0479431152344 -3.300708293914795 C 301.9181518554688 -4.504541873931885 302.3594055175781 -6.269583225250244 302.3594055175781 -8.546875 C 302.3594055175781 -10.8772497177124 301.9255676269531 -12.63287544250488 301.0698852539062 -13.76491641998291 C 300.235107421875 -14.86937522888184 299.0009460449219 -15.40625 297.2969055175781 -15.40625 Z M 248.6406402587891 0.8125 C 246.5733489990234 0.8125 244.9876403808594 0.2373750060796738 243.9276885986328 -0.8968750238418579 C 242.8766937255859 -2.021541595458984 242.3437652587891 -3.701666593551636 242.3437652587891 -5.890625 L 242.3437652587891 -17.484375 L 244.8750152587891 -17.484375 L 244.8750152587891 -5.984375 C 244.8750152587891 -4.414041519165039 245.1929321289062 -3.274541616439819 245.8199768066406 -2.597541570663452 C 246.4368896484375 -1.931458353996277 247.4384307861328 -1.59375 248.7968902587891 -1.59375 C 250.6641387939453 -1.59375 252.0420684814453 -2.055500030517578 252.8923492431641 -2.966208219528198 C 253.7517700195312 -3.88670825958252 254.1875152587891 -5.448874950408936 254.1875152587891 -7.609375 L 254.1875152587891 -17.484375 L 256.7187805175781 -17.484375 L 256.7187805175781 0.5 L 254.4626922607422 0.5 L 254.26123046875 -1.178581237792969 C 253.0076599121094 0.1435910165309906 251.1228332519531 0.8125 248.6406402587891 0.8125 Z M 222.1562652587891 0.8125 C 219.5925598144531 0.8125 217.5485687255859 -0.01612499915063381 216.0811004638672 -1.650291681289673 C 214.6276397705078 -3.268958330154419 213.8906402587891 -5.536749839782715 213.8906402587891 -8.390625 C 213.8906402587891 -11.31837463378906 214.6546936035156 -13.64216709136963 216.1615142822266 -15.29749965667725 C 217.6806030273438 -16.96633338928223 219.7763977050781 -17.8125 222.3906402587891 -17.8125 C 223.9134368896484 -17.8125 225.3925628662109 -17.54395866394043 226.7869415283203 -17.01429176330566 L 227.2247772216797 -16.84795761108398 L 226.5153198242188 -14.53558349609375 L 226.0293884277344 -14.69754123687744 C 224.6186065673828 -15.16779136657715 223.3838195800781 -15.40625 222.3593902587891 -15.40625 C 220.4141082763672 -15.40625 218.9910583496094 -14.83383369445801 218.0090179443359 -13.65629196166992 C 217.01806640625 -12.46820831298828 216.5156402587891 -10.7070837020874 216.5156402587891 -8.421875 C 216.5156402587891 -6.260291576385498 217.0185241699219 -4.55649995803833 218.0102691650391 -3.357749938964844 C 218.9922637939453 -2.17074990272522 220.3382263183594 -1.59375 222.1250152587891 -1.59375 C 223.5929718017578 -1.59375 224.9738922119141 -1.859375 226.2293548583984 -2.383291721343994 L 226.9218902587891 -2.672333240509033 L 226.9218902587891 -0.1726666688919067 L 226.6420593261719 -0.03545833379030228 C 225.4946441650391 0.5272083282470703 223.9854431152344 0.8125 222.1562652587891 0.8125 Z M 202.5781402587891 0.8125 C 200.0918884277344 0.8125 198.1552734375 0.01724999956786633 196.8221893310547 -1.551166653633118 C 195.5093994140625 -3.095624923706055 194.8437652587891 -5.349416732788086 194.8437652587891 -8.25 C 194.8437652587891 -11.28929138183594 195.5004425048828 -13.65950012207031 196.7955627441406 -15.29479122161865 C 198.1186065673828 -16.96541595458984 200.0536499023438 -17.8125 202.5468902587891 -17.8125 C 203.8486480712891 -17.8125 204.9963073730469 -17.5687084197998 205.9580230712891 -17.08783340454102 C 206.572265625 -16.78069877624512 207.1478576660156 -16.33567428588867 207.6786804199219 -15.75856971740723 C 207.6533966064453 -16.58500289916992 207.6406402587891 -17.40286445617676 207.6406402587891 -18.203125 L 207.6406402587891 -24.8125 L 210.1718902587891 -24.8125 L 210.1718902587891 0.5 L 208.2259368896484 0.5 L 207.9261779785156 -1.490422964096069 C 206.5869903564453 0.0387667752802372 204.7926025390625 0.8125 202.5781402587891 0.8125 Z M 202.5468902587891 -15.40625 C 200.8482666015625 -15.40625 199.6140594482422 -14.83570861816406 198.7737274169922 -13.66204166412354 C 197.9078063964844 -12.45266628265381 197.4687652587891 -10.64233303070068 197.4687652587891 -8.28125 C 197.4687652587891 -6 197.9051818847656 -4.28166675567627 198.7659301757812 -3.174000024795532 C 199.6085205078125 -2.089624881744385 200.8555145263672 -1.5625 202.5781402587891 -1.5625 C 204.3514862060547 -1.5625 205.6039733886719 -2.048291683197021 206.4071807861328 -3.047625064849854 C 207.2256469726562 -4.065999984741211 207.6406402587891 -5.816333293914795 207.6406402587891 -8.25 L 207.6406402587891 -8.515625 C 207.6406402587891 -11.01599979400635 207.2310180664062 -12.81949996948242 206.4231414794922 -13.87595844268799 C 205.6356811523438 -14.90566635131836 204.3677673339844 -15.40625 202.5468902587891 -15.40625 Z M 183.3437652587891 0.8125 C 181.5553131103516 0.8125 180.1323089599609 0.3369166553020477 179.1143493652344 -0.6010416746139526 C 178.0846405029297 -1.549749970436096 177.5625152587891 -2.866833448410034 177.5625152587891 -4.515625 C 177.5625152587891 -6.34208345413208 178.334228515625 -7.780708312988281 179.8561859130859 -8.791500091552734 C 181.3103485107422 -9.757291793823242 183.4161529541016 -10.27425003051758 186.1150665283203 -10.32804203033447 L 188.8593902587891 -10.4075927734375 L 188.8593902587891 -11.046875 C 188.8593902587891 -12.53783321380615 188.5648956298828 -13.66308307647705 187.9841003417969 -14.3913745880127 C 187.4227294921875 -15.09529209136963 186.5130615234375 -15.4375 185.2031402587891 -15.4375 C 183.7184753417969 -15.4375 182.1504821777344 -15.01479148864746 180.5426940917969 -14.18112468719482 L 180.0655975341797 -13.93375015258789 L 179.0838165283203 -16.21574974060059 L 179.52197265625 -16.4213752746582 C 181.4447784423828 -17.32370758056641 183.3772277832031 -17.78125 185.2656402587891 -17.78125 C 187.2637634277344 -17.78125 188.7919006347656 -17.24008369445801 189.8075256347656 -16.17279243469238 C 190.8165283203125 -15.11250019073486 191.3281402587891 -13.47200012207031 191.3281402587891 -11.296875 L 191.3281402587891 0.5 L 189.2549438476562 0.5 L 188.9435577392578 -1.642391085624695 C 188.2371215820312 -0.8714814186096191 187.5065307617188 -0.2940329611301422 186.7636871337891 0.07954166829586029 C 185.7965698242188 0.5658749938011169 184.6459350585938 0.8125 183.3437652587891 0.8125 Z M 188.7968902587891 -8.119144439697266 L 186.3491821289062 -8.016083717346191 C 184.0638122558594 -7.906291484832764 182.4280242919922 -7.555500030517578 181.4901885986328 -6.973583221435547 C 180.6241455078125 -6.436166763305664 180.2031402587891 -5.611708164215088 180.2031402587891 -4.453125 C 180.2031402587891 -3.530083417892456 180.4686889648438 -2.841291666030884 181.0149841308594 -2.347458362579346 C 181.5682220458984 -1.847333312034607 182.3832702636719 -1.59375 183.4375152587891 -1.59375 C 185.1285552978516 -1.59375 186.4164733886719 -2.054958343505859 187.3747711181641 -3.003750085830688 C 188.3317260742188 -3.95116662979126 188.7968902587891 -5.248166561126709 188.7968902587891 -6.96875 L 188.7968902587891 -8.119144439697266 Z M 168.6718902587891 0.8125 C 166.0677337646484 0.8125 164.0006866455078 -0.01020833291113377 162.5281829833984 -1.632750034332275 C 161.068359375 -3.241291761398315 160.3281402587891 -5.504458427429199 160.3281402587891 -8.359375 C 160.3281402587891 -11.17345809936523 161.0390625 -13.46945858001709 162.4411010742188 -15.18370819091797 C 163.8677215576172 -16.92804145812988 165.8116455078125 -17.8125 168.2187652587891 -17.8125 C 170.3654022216797 -17.8125 172.0878601074219 -17.04716682434082 173.3381805419922 -15.5377082824707 C 174.5653076171875 -14.05633354187012 175.1875152587891 -12.0354585647583 175.1875152587891 -9.53125 L 175.1875152587891 -7.78125 L 162.9665985107422 -7.78125 C 163.0546875 -5.825949192047119 163.5573120117188 -4.308475971221924 164.4633941650391 -3.265374898910522 C 165.4405212402344 -2.140541553497314 166.8171081542969 -1.59375 168.6718902587891 -1.59375 C 169.6057739257812 -1.59375 170.4347686767578 -1.659291625022888 171.1358947753906 -1.788583278656006 C 171.8346862792969 -1.917458295822144 172.7413482666016 -2.20270824432373 173.8306884765625 -2.636416673660278 L 174.5156402587891 -2.909125089645386 L 174.5156402587891 -0.4377916753292084 L 174.2150268554688 -0.3070833384990692 C 173.2265167236328 0.122708335518837 172.2964782714844 0.4203333258628845 171.4507751464844 0.5775416493415833 C 170.6121063232422 0.7334583401679993 169.6771392822266 0.8125 168.6718902587891 0.8125 Z M 163.1013488769531 -10.15625 L 172.5368194580078 -10.15625 C 172.4706573486328 -11.76628875732422 172.0788116455078 -13.04712295532227 171.3694763183594 -13.96837520599365 C 170.6082763671875 -14.95695877075195 169.5776824951172 -15.4375 168.2187652587891 -15.4375 C 166.7159423828125 -15.4375 165.5484313964844 -14.96145820617676 164.6496429443359 -13.98220825195312 C 163.8293304443359 -13.0885009765625 163.3095703125 -11.80320167541504 163.1013488769531 -10.15625 Z M 99.87502288818359 0.8125 C 96.940185546875 0.8125 94.60393524169922 -0.01887499913573265 92.9312744140625 -1.658583283424377 C 91.25581359863281 -3.300958395004272 90.40627288818359 -5.639541625976562 90.40627288818359 -8.609375 C 90.40627288818359 -11.65174961090088 91.18901824951172 -14.04950046539307 92.73272705078125 -15.73600006103516 C 94.28810119628906 -17.4352912902832 96.45452117919922 -18.296875 99.17189788818359 -18.296875 C 101.7687301635742 -18.296875 103.828857421875 -17.53658294677734 105.2950210571289 -16.03704261779785 C 106.7581481933594 -14.5406665802002 107.5000228881836 -12.46220874786377 107.5000228881836 -9.859375 L 107.5000228881836 -7.046875 L 96.27459716796875 -7.046875 C 96.39190673828125 -6.072858810424805 96.73358917236328 -5.293809413909912 97.29351806640625 -4.72612476348877 C 97.95169067382812 -4.058791637420654 98.86769104003906 -3.734375 100.0937728881836 -3.734375 C 101.1027297973633 -3.734375 102.068603515625 -3.840374946594238 102.9645233154297 -4.049416542053223 C 103.8636474609375 -4.259208202362061 104.8187255859375 -4.599916458129883 105.8031845092773 -5.061999797821045 L 106.5156478881836 -5.396416664123535 L 106.5156478881836 -0.6128749847412109 L 106.2392730712891 -0.4746666550636292 C 105.3721008300781 -0.04108333215117455 104.4331436157227 0.2857500016689301 103.4485244750977 0.4967499971389771 C 102.4707260131836 0.706250011920929 101.268440246582 0.8125 99.87502288818359 0.8125 Z M 96.40175628662109 -11.21875 L 102.0008926391602 -11.21875 C 101.9163970947266 -12.01953887939453 101.6622619628906 -12.65270137786865 101.2426910400391 -13.1054162979126 C 100.7432327270508 -13.64429187774658 100.0761032104492 -13.90625 99.20314788818359 -13.90625 C 98.33377075195312 -13.90625 97.67881011962891 -13.64645862579346 97.20085144042969 -13.11200046539307 C 96.79311370849609 -12.65607070922852 96.52524566650391 -12.02075481414795 96.40175628662109 -11.21875 Z M 58.68751907348633 0.8125 C 56.88135528564453 0.8125 55.43006134033203 0.2799166738986969 54.37397766113281 -0.7705000042915344 C 53.31714630126953 -1.821624994277954 52.78126907348633 -3.31820821762085 52.78126907348633 -5.21875 C 52.78126907348633 -7.24008321762085 53.509521484375 -8.759249687194824 54.94577026367188 -9.734000205993652 C 56.31560516357422 -10.66374969482422 58.3780632019043 -11.18420791625977 61.07585525512695 -11.28091621398926 L 63.62501907348633 -11.35976314544678 L 63.62501907348633 -11.640625 C 63.62501907348633 -13.13187503814697 62.94073104858398 -13.796875 61.40626907348633 -13.796875 C 60.08781433105469 -13.796875 58.50056076049805 -13.38574981689453 56.68864440917969 -12.57487487792969 L 56.24797821044922 -12.37766647338867 L 54.24293899536133 -16.46716690063477 L 54.6744384765625 -16.69300079345703 C 56.74773025512695 -17.77799987792969 59.07572937011719 -18.328125 61.59376907348633 -18.328125 C 64.04481506347656 -18.328125 65.96489715576172 -17.77499961853027 67.30064392089844 -16.68412590026855 C 68.66673278808594 -15.56849956512451 69.35939788818359 -13.87162494659424 69.35939788818359 -11.640625 L 69.35939788818359 0.5 L 65.18901824951172 0.5 L 64.40814208984375 -1.511703968048096 C 63.70161437988281 -0.7321793437004089 62.9666748046875 -0.1642219573259354 62.21681213378906 0.1807916611433029 C 61.30585479736328 0.5999583601951599 60.1183967590332 0.8125 58.68751907348633 0.8125 Z M 63.62501907348633 -7.576517581939697 L 62.2982292175293 -7.53154182434082 C 61.01360321044922 -7.492916584014893 60.06197738647461 -7.269416809082031 59.46781158447266 -6.867208480834961 C 58.93222808837891 -6.504666805267334 58.67189407348633 -5.955208301544189 58.67189407348633 -5.1875 C 58.67189407348633 -4.438041687011719 58.88722991943359 -3.671875 60.48439407348633 -3.671875 C 61.46343612670898 -3.671875 62.21643829345703 -3.938041687011719 62.78643798828125 -4.485583305358887 C 63.35073089599609 -5.027666568756104 63.62501907348633 -5.737666606903076 63.62501907348633 -6.65625 L 63.62501907348633 -7.576517581939697 Z M 24.82814598083496 0.8125 C 23.0219783782959 0.8125 21.57068824768066 0.2799166738986969 20.51460456848145 -0.7705000042915344 C 19.45777130126953 -1.821624994277954 18.92189598083496 -3.31820821762085 18.92189598083496 -5.21875 C 18.92189598083496 -7.24008321762085 19.650146484375 -8.759249687194824 21.08639526367188 -9.734000205993652 C 22.45622825622559 -10.66374969482422 24.5186882019043 -11.18420791625977 27.21647834777832 -11.28091621398926 L 29.76564598083496 -11.35976314544678 L 29.76564598083496 -11.640625 C 29.76564598083496 -13.13187503814697 29.08135414123535 -13.796875 27.54689598083496 -13.796875 C 26.22843742370605 -13.796875 24.64118766784668 -13.38574981689453 22.82927131652832 -12.57487487792969 L 22.38860511779785 -12.37766647338867 L 20.3835620880127 -16.46716690063477 L 20.81506156921387 -16.69300079345703 C 22.88835334777832 -17.77799987792969 25.21635437011719 -18.328125 27.73439598083496 -18.328125 C 30.18543815612793 -18.328125 32.10552215576172 -17.77499961853027 33.4412727355957 -16.68412590026855 C 34.80735397338867 -15.56849956512451 35.50001907348633 -13.87162494659424 35.50001907348633 -11.640625 L 35.50001907348633 0.5 L 31.32964515686035 0.5 L 30.54876708984375 -1.511703968048096 C 29.84223747253418 -0.7321793437004089 29.10730171203613 -0.1642219573259354 28.35743713378906 0.1807916611433029 C 27.44647979736328 0.5999583601951599 26.2590217590332 0.8125 24.82814598083496 0.8125 Z M 29.76564598083496 -7.576517581939697 L 28.4388542175293 -7.53154182434082 C 27.15423011779785 -7.492916584014893 26.20260429382324 -7.269416809082031 25.60843658447266 -6.867208480834961 C 25.07285499572754 -6.504666805267334 24.81252098083496 -5.955208301544189 24.81252098083496 -5.1875 C 24.81252098083496 -4.438041687011719 25.02785491943359 -3.671875 26.62502098083496 -3.671875 C 27.60406303405762 -3.671875 28.35706329345703 -3.938041687011719 28.92706298828125 -4.485583305358887 C 29.49135398864746 -5.027666568756104 29.76564598083496 -5.737666606903076 29.76564598083496 -6.65625 L 29.76564598083496 -7.576517581939697 Z M 285.1562805175781 0.5 L 282.6250305175781 0.5 L 282.6250305175781 -11.140625 C 282.6250305175781 -12.66724967956543 282.339111328125 -13.77799987792969 281.7751770019531 -14.4419584274292 C 281.2240600585938 -15.09083366394043 280.3775939941406 -15.40625 279.1875305175781 -15.40625 C 277.6072387695312 -15.40625 276.4356994628906 -14.98045825958252 275.7054443359375 -14.14066696166992 C 274.9574279785156 -13.28045845031738 274.5781555175781 -11.87158298492432 274.5781555175781 -9.953125 L 274.5781555175781 0.5 L 272.0000305175781 0.5 L 272.0000305175781 -11.609375 C 272.0000305175781 -14.19974994659424 270.90771484375 -15.40625 268.5625305175781 -15.40625 C 266.9284057617188 -15.40625 265.7844848632812 -14.9603328704834 265.0653991699219 -14.04308319091797 C 264.3273620605469 -13.10158348083496 263.9531555175781 -11.53104209899902 263.9531555175781 -9.375 L 263.9531555175781 0.5 L 261.4062805175781 0.5 L 261.4062805175781 -17.484375 L 263.6219787597656 -17.484375 L 263.8507385253906 -15.86141681671143 C 264.2752075195312 -16.34175872802734 264.7843017578125 -16.74217414855957 265.3731384277344 -17.05783271789551 C 266.3071594238281 -17.55858421325684 267.3486938476562 -17.8125 268.4687805175781 -17.8125 C 270.9960632324219 -17.8125 272.7594299316406 -16.95562171936035 273.7237243652344 -15.26280689239502 C 274.2538146972656 -15.96913528442383 274.9059448242188 -16.5407886505127 275.6701965332031 -16.96775054931641 C 276.6735534667969 -17.52829170227051 277.8254089355469 -17.8125 279.0937805175781 -17.8125 C 281.0830078125 -17.8125 282.6094360351562 -17.25987434387207 283.6305236816406 -16.16995811462402 C 284.6429443359375 -15.0892915725708 285.1562805175781 -13.3866662979126 285.1562805175781 -11.109375 L 285.1562805175781 0.5 Z M 232.6250152587891 0.5 L 230.0781402587891 0.5 L 230.0781402587891 -17.484375 L 232.3657684326172 -17.484375 L 232.4745330810547 -15.35251522064209 C 232.9966735839844 -16.06626129150391 233.5479278564453 -16.61002540588379 234.1216888427734 -16.97616577148438 C 234.9913177490234 -17.53112411499023 236.0490570068359 -17.8125 237.2656402587891 -17.8125 C 238.0101470947266 -17.8125 238.8175659179688 -17.7363338470459 239.6653900146484 -17.58608245849609 L 240.1686859130859 -17.49687576293945 L 239.6687316894531 -14.99712467193604 L 239.1600189208984 -15.12429141998291 C 238.4945983886719 -15.2906665802002 237.7941436767578 -15.375 237.0781402587891 -15.375 C 235.7843170166016 -15.375 234.7496032714844 -14.83695793151855 233.9148559570312 -13.7301664352417 C 233.0589752197266 -12.59545803070068 232.6250152587891 -11.13016700744629 232.6250152587891 -9.375 L 232.6250152587891 0.5 Z M 151.4062652587891 0.5 L 148.8593902587891 0.5 L 148.8593902587891 -17.484375 L 151.1470184326172 -17.484375 L 151.2557830810547 -15.35251426696777 C 151.7779235839844 -16.06625938415527 152.3291778564453 -16.61002540588379 152.9029388427734 -16.97616577148438 C 153.7725677490234 -17.53112411499023 154.8303070068359 -17.8125 156.0468902587891 -17.8125 C 156.7913970947266 -17.8125 157.5988159179688 -17.7363338470459 158.4466400146484 -17.58608245849609 L 158.9499359130859 -17.49687576293945 L 158.4499816894531 -14.99712467193604 L 157.9412689208984 -15.12429141998291 C 157.2758483886719 -15.2906665802002 156.5753936767578 -15.375 155.8593902587891 -15.375 C 154.5655670166016 -15.375 153.5308532714844 -14.83695793151855 152.6961059570312 -13.7301664352417 C 151.8402252197266 -12.59545803070068 151.4062652587891 -11.13016700744629 151.4062652587891 -9.375 L 151.4062652587891 0.5 Z M 136.6875152587891 0.5 L 129.1875152587891 0.5 L 129.1875152587891 -23.34375 L 135.9531402587891 -23.34375 C 138.870361328125 -23.34375 141.0613555908203 -22.828125 142.4652252197266 -21.81116676330566 C 143.9190979003906 -20.75795745849609 144.6562652587891 -19.16029167175293 144.6562652587891 -17.0625 C 144.6562652587891 -15.61666679382324 144.2046051025391 -14.39108371734619 143.3138122558594 -13.41983318328857 C 142.7812957763672 -12.83924293518066 142.1004486083984 -12.38212203979492 141.2791137695312 -12.05227565765381 C 142.3318786621094 -11.71059417724609 143.1718292236328 -11.22198104858398 143.7874450683594 -10.59145832061768 C 144.7371826171875 -9.618666648864746 145.2187652587891 -8.263125419616699 145.2187652587891 -6.5625 C 145.2187652587891 -4.310416698455811 144.4522705078125 -2.544958353042603 142.9405212402344 -1.315250039100647 C 141.4597778320312 -0.1107499971985817 139.3559417724609 0.5 136.6875152587891 0.5 Z M 131.7812652587891 -1.90625 L 136.6562652587891 -1.90625 C 138.6431427001953 -1.90625 140.1378173828125 -2.302249908447266 141.0987243652344 -3.08329176902771 C 142.0416412353516 -3.84975004196167 142.5000152587891 -4.987791538238525 142.5000152587891 -6.5625 C 142.5000152587891 -7.970166683197021 142.0225982666016 -8.990166664123535 141.04052734375 -9.680874824523926 C 140.0169830322266 -10.40066623687744 138.42626953125 -10.765625 136.3125152587891 -10.765625 L 131.7812652587891 -10.765625 L 131.7812652587891 -1.90625 Z M 131.7812652587891 -13.171875 L 136.3125152587891 -13.171875 C 138.3398132324219 -13.171875 139.8148498535156 -13.49945831298828 140.6966857910156 -14.14550018310547 C 141.5421447753906 -14.76491641998291 141.9531402587891 -15.72929191589355 141.9531402587891 -17.09375 C 141.9531402587891 -18.44241714477539 141.49072265625 -19.38729095458984 140.5395202636719 -19.98237419128418 C 139.5263977050781 -20.61612510681152 137.9623107910156 -20.9375 135.8906402587891 -20.9375 L 131.7812652587891 -20.9375 L 131.7812652587891 -13.171875 Z M 116.1406478881836 0.5 L 110.3750228881836 0.5 L 110.3750228881836 -24.8125 L 116.1406478881836 -24.8125 L 116.1406478881836 0.5 Z M 83.15705871582031 0.5 L 77.57735443115234 0.5 L 70.54006195068359 -17.96875 L 76.60843658447266 -17.96875 L 80.10427093505859 -7.65820837020874 C 80.20287322998047 -7.326767921447754 80.29221343994141 -6.998532295227051 80.37213897705078 -6.67425012588501 C 80.45299530029297 -6.992448806762695 80.54439544677734 -7.321142196655273 80.64618682861328 -7.659625053405762 L 80.65126800537109 -7.675541877746582 L 84.12543487548828 -17.96875 L 90.19435119628906 -17.96875 L 83.15705871582031 0.5 Z M 45.17189407348633 0.5 L 39.40626907348633 0.5 L 39.40626907348633 -17.96875 L 43.91010284423828 -17.96875 L 44.49423599243164 -15.52824020385742 C 45.00744247436523 -16.23821258544922 45.6378173828125 -16.83806991577148 46.37602233886719 -17.31770896911621 C 47.37606430053711 -17.96741676330566 48.47968673706055 -18.296875 49.65626907348633 -18.296875 C 50.33506393432617 -18.296875 50.91260528564453 -18.24566650390625 51.37285232543945 -18.14462471008301 L 51.79902267456055 -18.05108261108398 L 51.35643768310547 -12.54787540435791 L 50.77581405639648 -12.70483303070068 C 50.43473052978516 -12.79699993133545 50.00547790527344 -12.84375 49.50001907348633 -12.84375 C 48.11568832397461 -12.84375 47.03364562988281 -12.49391651153564 46.28389739990234 -11.80395793914795 C 45.53564453125 -11.11537456512451 45.17189407348633 -10.16241645812988 45.17189407348633 -8.890625 L 45.17189407348633 0.5 Z M 17.48439598083496 0.5 L 2.375020742416382 0.5 L 2.375020742416382 -23.34375 L 8.218770980834961 -23.34375 L 8.218770980834961 -4.5 L 17.48439598083496 -4.5 L 17.48439598083496 0.5 Z" stroke="none" fill="rgba(255,255,255,0.5)"/></g><g transform="translate(-110 6)"><path d="M83,1l18.244,22.769L83,42.4h9.681l18.244-18.629L92.681,1Z" transform="translate(41.743 12.602)" fill-rule="evenodd" fill="url(#a)"/><path d="M83,1l18.244,22.769L83,42.4h9.681l18.244-18.629L92.681,1Z" transform="translate(55.743 12.602)" fill-rule="evenodd" fill="url(#a)"/><path d="M83,1l18.244,22.769L83,42.4h9.681l18.244-18.629L92.681,1Z" transform="translate(69.743 12.602)" fill-rule="evenodd" fill="url(#a)"/></g></g></svg>