<svg xmlns="http://www.w3.org/2000/svg" xmlns:xlink="http://www.w3.org/1999/xlink" width="420" height="80" viewBox="0 0 420 80"><defs><linearGradient id="a" x1="0.5" x2="0.5" y2="1" gradientUnits="objectBoundingBox"><stop offset="0" stop-color="#ff2d20"/><stop offset="1" stop-color="#c900ae"/></linearGradient><clipPath id="e"><rect width="420" height="80"/></clipPath></defs><g id="d" clip-path="url(#e)"><g transform="translate(85 53)"><path d="M 313.0781555175781 0.8125 C 310.7363586425781 0.8125 308.8393859863281 0.4410833418369293 307.4400329589844 -0.2913750112056732 L 307.1719055175781 -0.4317499995231628 L 307.1719055175781 -0.734375 L 307.1719055175781 -2.40625 L 307.1719055175781 -3.215250015258789 L 307.8955078125 -2.853458404541016 C 309.5258178710938 -2.038333415985107 311.2694702148438 -1.625 313.0781555175781 -1.625 C 314.6502380371094 -1.625 315.8448181152344 -1.879666686058044 316.6286926269531 -2.381916761398315 C 317.3516845703125 -2.845166683197021 317.7031555175781 -3.435750007629395 317.7031555175781 -4.1875 C 317.7031555175781 -4.893125057220459 317.4214782714844 -5.473333358764648 316.8419799804688 -5.961291790008545 C 316.1985168457031 -6.503166675567627 315.1018981933594 -7.051624774932861 313.5826416015625 -7.591333389282227 C 311.8304443359375 -8.225583076477051 310.6271362304688 -8.76058292388916 309.9012145996094 -9.228041648864746 C 309.1546020507812 -9.708791732788086 308.5800170898438 -10.265625 308.1933898925781 -10.88304138183594 C 307.7955322265625 -11.51850032806396 307.5937805175781 -12.29383373260498 307.5937805175781 -13.1875 C 307.5937805175781 -14.62616634368896 308.2050170898438 -15.77908325195312 309.4106140136719 -16.61416625976562 C 310.5585632324219 -17.40933418273926 312.1604919433594 -17.8125 314.1719055175781 -17.8125 C 316.0631408691406 -17.8125 317.8838195800781 -17.45254135131836 319.5833435058594 -16.74262428283691 L 320.0421447753906 -16.55100059509277 L 319.8531188964844 -16.09112548828125 L 319.2749938964844 -14.68487453460693 L 319.0845947265625 -14.22187519073486 L 318.6218566894531 -14.41279125213623 C 317.0237731933594 -15.07199954986572 315.5265502929688 -15.40625 314.1719055175781 -15.40625 C 312.8800659179688 -15.40625 311.853515625 -15.1966667175293 311.1206970214844 -14.7832498550415 C 310.4627380371094 -14.41208362579346 310.1562805175781 -13.94474983215332 310.1562805175781 -13.3125 C 310.1562805175781 -12.57520866394043 310.4073486328125 -12.00516700744629 310.9237976074219 -11.56979179382324 C 311.5054016113281 -11.07954120635986 312.6969299316406 -10.51000022888184 314.4653930664062 -9.876999855041504 C 316.0468139648438 -9.306833267211914 317.1727294921875 -8.802958488464355 317.9084777832031 -8.336250305175781 C 318.6672973632812 -7.854875087738037 319.2484741210938 -7.294208526611328 319.6358032226562 -6.669833183288574 C 320.0330200195312 -6.02958345413208 320.2344055175781 -5.273250102996826 320.2344055175781 -4.421875 C 320.2344055175781 -2.736416578292847 319.5797729492188 -1.418874979019165 318.2887268066406 -0.5058333277702332 C 317.0517578125 0.3689583241939545 315.2986755371094 0.8125 313.0781555175781 0.8125 Z M 297.2656555175781 0.8125 C 295.9823913574219 0.8125 294.8065185546875 0.5414166450500488 293.7706909179688 0.006791666615754366 C 293.0368957519531 -0.3719325363636017 292.4051208496094 -0.8668769598007202 291.8833618164062 -1.470623135566711 L 291.6178894042969 0.08416666835546494 L 291.5469055175781 0.5 L 291.1250305175781 0.5 L 290.1562805175781 0.5 L 289.6562805175781 0.5 L 289.6562805175781 -1.77635683940025e-15 L 289.6562805175781 -24.3125 L 289.6562805175781 -24.8125 L 290.1562805175781 -24.8125 L 291.7031555175781 -24.8125 L 292.2031555175781 -24.8125 L 292.2031555175781 -24.3125 L 292.2031555175781 -18.203125 C 292.2031555175781 -17.32198524475098 292.1836242675781 -16.49565887451172 292.1452026367188 -15.74520015716553 C 292.6436767578125 -16.28498077392578 293.1992797851562 -16.71716499328613 293.806396484375 -17.03633308410645 C 294.7861022949219 -17.5513744354248 295.9709777832031 -17.8125 297.3281555175781 -17.8125 C 299.8508911132812 -17.8125 301.7876892089844 -16.99537467956543 303.0848083496094 -15.38379192352295 C 304.3556518554688 -13.80487537384033 305.0000305175781 -11.49408340454102 305.0000305175781 -8.515625 C 305.0000305175781 -5.586541652679443 304.3227233886719 -3.281958341598511 302.9869689941406 -1.665833353996277 C 301.6277160644531 -0.02133333310484886 299.7028198242188 0.8125 297.2656555175781 0.8125 Z M 297.2969055175781 -15.40625 C 295.44580078125 -15.40625 294.1708679199219 -14.90908336639404 293.3991394042969 -13.88633346557617 C 292.6055297851562 -12.83462524414062 292.2031555175781 -11.02766704559326 292.2031555175781 -8.515625 L 292.2031555175781 -8.25 C 292.2031555175781 -5.816791534423828 292.6204833984375 -4.06683349609375 293.4435119628906 -3.048708438873291 C 294.2519836425781 -2.048624992370605 295.5022277832031 -1.5625 297.2656555175781 -1.5625 C 298.9652404785156 -1.5625 300.202392578125 -2.131083250045776 301.0479431152344 -3.300708293914795 C 301.9181518554688 -4.504541873931885 302.3594055175781 -6.269583225250244 302.3594055175781 -8.546875 C 302.3594055175781 -10.8772497177124 301.9255676269531 -12.63287544250488 301.0698852539062 -13.76491641998291 C 300.235107421875 -14.86937522888184 299.0009460449219 -15.40625 297.2969055175781 -15.40625 Z M 248.6406402587891 0.8125 C 246.5733489990234 0.8125 244.9876403808594 0.2373750060796738 243.9276885986328 -0.8968750238418579 C 242.8766937255859 -2.021541595458984 242.3437652587891 -3.701666593551636 242.3437652587891 -5.890625 L 242.3437652587891 -16.984375 L 242.3437652587891 -17.484375 L 242.8437652587891 -17.484375 L 244.3750152587891 -17.484375 L 244.8750152587891 -17.484375 L 244.8750152587891 -16.984375 L 244.8750152587891 -5.984375 C 244.8750152587891 -4.414041519165039 245.1929321289062 -3.274541616439819 245.8199768066406 -2.597541570663452 C 246.4368896484375 -1.931458353996277 247.4384307861328 -1.59375 248.7968902587891 -1.59375 C 250.6641387939453 -1.59375 252.0420684814453 -2.055500030517578 252.8923492431641 -2.966208219528198 C 253.7517700195312 -3.88670825958252 254.1875152587891 -5.448874950408936 254.1875152587891 -7.609375 L 254.1875152587891 -16.984375 L 254.1875152587891 -17.484375 L 254.6875152587891 -17.484375 L 256.2187805175781 -17.484375 L 256.7187805175781 -17.484375 L 256.7187805175781 -16.984375 L 256.7187805175781 -1.77635683940025e-15 L 256.7187805175781 0.5 L 256.2187805175781 0.5 L 254.9062652587891 0.5 L 254.4626922607422 0.5 L 254.4098052978516 0.05958333238959312 L 254.26123046875 -1.178581237792969 C 253.0076599121094 0.1435910165309906 251.1228332519531 0.8125 248.6406402587891 0.8125 Z M 222.1562652587891 0.8125 C 219.5925598144531 0.8125 217.5485687255859 -0.01612499915063381 216.0811004638672 -1.650291681289673 C 214.6276397705078 -3.268958330154419 213.8906402587891 -5.536749839782715 213.8906402587891 -8.390625 C 213.8906402587891 -11.31837463378906 214.6546936035156 -13.64216709136963 216.1615142822266 -15.29749965667725 C 217.6806030273438 -16.96633338928223 219.7763977050781 -17.8125 222.3906402587891 -17.8125 C 223.9134368896484 -17.8125 225.3925628662109 -17.54395866394043 226.7869415283203 -17.01429176330566 L 227.2247772216797 -16.84795761108398 L 227.08740234375 -16.40020751953125 L 226.66552734375 -15.02520847320557 L 226.5153198242188 -14.53558349609375 L 226.0293884277344 -14.69754123687744 C 224.6186065673828 -15.16779136657715 223.3838195800781 -15.40625 222.3593902587891 -15.40625 C 220.4141082763672 -15.40625 218.9910583496094 -14.83383369445801 218.0090179443359 -13.65629196166992 C 217.01806640625 -12.46820831298828 216.5156402587891 -10.7070837020874 216.5156402587891 -8.421875 C 216.5156402587891 -6.260291576385498 217.0185241699219 -4.55649995803833 218.0102691650391 -3.357749938964844 C 218.9922637939453 -2.17074990272522 220.3382263183594 -1.59375 222.1250152587891 -1.59375 C 223.5929718017578 -1.59375 224.9738922119141 -1.859375 226.2293548583984 -2.383291721343994 L 226.9218902587891 -2.672333240509033 L 226.9218902587891 -1.921875 L 226.9218902587891 -0.484375 L 226.9218902587891 -0.1726666688919067 L 226.6420593261719 -0.03545833379030228 C 225.4946441650391 0.5272083282470703 223.9854431152344 0.8125 222.1562652587891 0.8125 Z M 202.5781402587891 0.8125 C 200.0918884277344 0.8125 198.1552734375 0.01724999956786633 196.8221893310547 -1.551166653633118 C 195.5093994140625 -3.095624923706055 194.8437652587891 -5.349416732788086 194.8437652587891 -8.25 C 194.8437652587891 -11.28929138183594 195.5004425048828 -13.65950012207031 196.7955627441406 -15.29479122161865 C 198.1186065673828 -16.96541595458984 200.0536499023438 -17.8125 202.5468902587891 -17.8125 C 203.8486480712891 -17.8125 204.9963073730469 -17.5687084197998 205.9580230712891 -17.08783340454102 C 206.572265625 -16.78069877624512 207.1478576660156 -16.33567428588867 207.6786804199219 -15.75856971740723 C 207.6533966064453 -16.58500289916992 207.6406402587891 -17.40286445617676 207.6406402587891 -18.203125 L 207.6406402587891 -24.3125 L 207.6406402587891 -24.8125 L 208.1406402587891 -24.8125 L 209.6718902587891 -24.8125 L 210.1718902587891 -24.8125 L 210.1718902587891 -24.3125 L 210.1718902587891 -1.77635683940025e-15 L 210.1718902587891 0.5 L 209.6718902587891 0.5 L 208.6562652587891 0.5 L 208.2259368896484 0.5 L 208.1618499755859 0.07445833086967468 L 207.9261779785156 -1.490422964096069 C 206.5869903564453 0.0387667752802372 204.7926025390625 0.8125 202.5781402587891 0.8125 Z M 202.5468902587891 -15.40625 C 200.8482666015625 -15.40625 199.6140594482422 -14.83570861816406 198.7737274169922 -13.66204166412354 C 197.9078063964844 -12.45266628265381 197.4687652587891 -10.64233303070068 197.4687652587891 -8.28125 C 197.4687652587891 -6 197.9051818847656 -4.28166675567627 198.7659301757812 -3.174000024795532 C 199.6085205078125 -2.089624881744385 200.8555145263672 -1.5625 202.5781402587891 -1.5625 C 204.3514862060547 -1.5625 205.6039733886719 -2.048291683197021 206.4071807861328 -3.047625064849854 C 207.2256469726562 -4.065999984741211 207.6406402587891 -5.816333293914795 207.6406402587891 -8.25 L 207.6406402587891 -8.515625 C 207.6406402587891 -11.01599979400635 207.2310180664062 -12.81949996948242 206.4231414794922 -13.87595844268799 C 205.6356811523438 -14.90566635131836 204.3677673339844 -15.40625 202.5468902587891 -15.40625 Z M 183.3437652587891 0.8125 C 181.5553131103516 0.8125 180.1323089599609 0.3369166553020477 179.1143493652344 -0.6010416746139526 C 178.0846405029297 -1.549749970436096 177.5625152587891 -2.866833448410034 177.5625152587891 -4.515625 C 177.5625152587891 -6.34208345413208 178.334228515625 -7.780708312988281 179.8561859130859 -8.791500091552734 C 181.3103485107422 -9.757291793823242 183.4161529541016 -10.27425003051758 186.1150665283203 -10.32804203033447 L 188.8593902587891 -10.4075927734375 L 188.8593902587891 -11.046875 C 188.8593902587891 -12.53783321380615 188.5648956298828 -13.66308307647705 187.9841003417969 -14.3913745880127 C 187.4227294921875 -15.09529209136963 186.5130615234375 -15.4375 185.2031402587891 -15.4375 C 183.7184753417969 -15.4375 182.1504821777344 -15.01479148864746 180.5426940917969 -14.18112468719482 L 180.0655975341797 -13.93375015258789 L 179.8532257080078 -14.42741680145264 L 179.2751007080078 -15.77116680145264 L 179.0838165283203 -16.21574974060059 L 179.52197265625 -16.4213752746582 C 181.4447784423828 -17.32370758056641 183.3772277832031 -17.78125 185.2656402587891 -17.78125 C 187.2637634277344 -17.78125 188.7919006347656 -17.24008369445801 189.8075256347656 -16.17279243469238 C 190.8165283203125 -15.11250019073486 191.3281402587891 -13.47200012207031 191.3281402587891 -11.296875 L 191.3281402587891 -1.77635683940025e-15 L 191.3281402587891 0.5 L 190.8281402587891 0.5 L 189.6875152587891 0.5 L 189.2549438476562 0.5 L 189.1927337646484 0.07191666960716248 L 188.9435577392578 -1.642391085624695 C 188.2371215820312 -0.8714814186096191 187.5065307617188 -0.2940329611301422 186.7636871337891 0.07954166829586029 C 185.7965698242188 0.5658749938011169 184.6459350585938 0.8125 183.3437652587891 0.8125 Z M 188.7968902587891 -8.119144439697266 L 186.3491821289062 -8.016083717346191 C 184.0638122558594 -7.906291484832764 182.4280242919922 -7.555500030517578 181.4901885986328 -6.973583221435547 C 180.6241455078125 -6.436166763305664 180.2031402587891 -5.611708164215088 180.2031402587891 -4.453125 C 180.2031402587891 -3.530083417892456 180.4686889648438 -2.841291666030884 181.0149841308594 -2.347458362579346 C 181.5682220458984 -1.847333312034607 182.3832702636719 -1.59375 183.4375152587891 -1.59375 C 185.1285552978516 -1.59375 186.4164733886719 -2.054958343505859 187.3747711181641 -3.003750085830688 C 188.3317260742188 -3.95116662979126 188.7968902587891 -5.248166561126709 188.7968902587891 -6.96875 L 188.7968902587891 -8.119144439697266 Z M 168.6718902587891 0.8125 C 166.0677337646484 0.8125 164.0006866455078 -0.01020833291113377 162.5281829833984 -1.632750034332275 C 161.068359375 -3.241291761398315 160.3281402587891 -5.504458427429199 160.3281402587891 -8.359375 C 160.3281402587891 -11.17345809936523 161.0390625 -13.46945858001709 162.4411010742188 -15.18370819091797 C 163.8677215576172 -16.92804145812988 165.8116455078125 -17.8125 168.2187652587891 -17.8125 C 170.3654022216797 -17.8125 172.0878601074219 -17.04716682434082 173.3381805419922 -15.5377082824707 C 174.5653076171875 -14.05633354187012 175.1875152587891 -12.0354585647583 175.1875152587891 -9.53125 L 175.1875152587891 -8.28125 L 175.1875152587891 -7.78125 L 174.6875152587891 -7.78125 L 162.9665985107422 -7.78125 C 163.0546875 -5.825949192047119 163.5573120117188 -4.308475971221924 164.4633941650391 -3.265374898910522 C 165.4405212402344 -2.140541553497314 166.8171081542969 -1.59375 168.6718902587891 -1.59375 C 169.6057739257812 -1.59375 170.4347686767578 -1.659291625022888 171.1358947753906 -1.788583278656006 C 171.8346862792969 -1.917458295822144 172.7413482666016 -2.20270824432373 173.8306884765625 -2.636416673660278 L 174.5156402587891 -2.909125089645386 L 174.5156402587891 -2.171875 L 174.5156402587891 -0.765625 L 174.5156402587891 -0.4377916753292084 L 174.2150268554688 -0.3070833384990692 C 173.2265167236328 0.122708335518837 172.2964782714844 0.4203333258628845 171.4507751464844 0.5775416493415833 C 170.6121063232422 0.7334583401679993 169.6771392822266 0.8125 168.6718902587891 0.8125 Z M 163.1013488769531 -10.15625 L 172.5368194580078 -10.15625 C 172.4706573486328 -11.76628875732422 172.0788116455078 -13.04712295532227 171.3694763183594 -13.96837520599365 C 170.6082763671875 -14.95695877075195 169.5776824951172 -15.4375 168.2187652587891 -15.4375 C 166.7159423828125 -15.4375 165.5484313964844 -14.96145820617676 164.6496429443359 -13.98220825195312 C 163.8293304443359 -13.0885009765625 163.3095703125 -11.80320167541504 163.1013488769531 -10.15625 Z M 99.87502288818359 0.8125 C 96.940185546875 0.8125 94.60393524169922 -0.01887499913573265 92.9312744140625 -1.658583283424377 C 91.25581359863281 -3.300958395004272 90.40627288818359 -5.639541625976562 90.40627288818359 -8.609375 C 90.40627288818359 -11.65174961090088 91.18901824951172 -14.04950046539307 92.73272705078125 -15.73600006103516 C 94.28810119628906 -17.4352912902832 96.45452117919922 -18.296875 99.17189788818359 -18.296875 C 101.7687301635742 -18.296875 103.828857421875 -17.53658294677734 105.2950210571289 -16.03704261779785 C 106.7581481933594 -14.5406665802002 107.5000228881836 -12.46220874786377 107.5000228881836 -9.859375 L 107.5000228881836 -7.546875 L 107.5000228881836 -7.046875 L 107.0000228881836 -7.046875 L 96.27459716796875 -7.046875 C 96.39190673828125 -6.072858810424805 96.73358917236328 -5.293809413909912 97.29351806640625 -4.72612476348877 C 97.95169067382812 -4.058791637420654 98.86769104003906 -3.734375 100.0937728881836 -3.734375 C 101.1027297973633 -3.734375 102.068603515625 -3.840374946594238 102.9645233154297 -4.049416542053223 C 103.8636474609375 -4.259208202362061 104.8187255859375 -4.599916458129883 105.8031845092773 -5.061999797821045 L 106.5156478881836 -5.396416664123535 L 106.5156478881836 -4.609375 L 106.5156478881836 -0.921875 L 106.5156478881836 -0.6128749847412109 L 106.2392730712891 -0.4746666550636292 C 105.3721008300781 -0.04108333215117455 104.4331436157227 0.2857500016689301 103.4485244750977 0.4967499971389771 C 102.4707260131836 0.706250011920929 101.268440246582 0.8125 99.87502288818359 0.8125 Z M 96.40175628662109 -11.21875 L 102.0008926391602 -11.21875 C 101.9163970947266 -12.01953887939453 101.6622619628906 -12.65270137786865 101.2426910400391 -13.1054162979126 C 100.7432327270508 -13.64429187774658 100.0761032104492 -13.90625 99.20314788818359 -13.90625 C 98.33377075195312 -13.90625 97.67881011962891 -13.64645862579346 97.20085144042969 -13.11200046539307 C 96.79311370849609 -12.65607070922852 96.52524566650391 -12.02075481414795 96.40175628662109 -11.21875 Z M 58.68751907348633 0.8125 C 56.88135528564453 0.8125 55.43006134033203 0.2799166738986969 54.37397766113281 -0.7705000042915344 C 53.31714630126953 -1.821624994277954 52.78126907348633 -3.31820821762085 52.78126907348633 -5.21875 C 52.78126907348633 -7.24008321762085 53.509521484375 -8.759249687194824 54.94577026367188 -9.734000205993652 C 56.31560516357422 -10.66374969482422 58.3780632019043 -11.18420791625977 61.07585525512695 -11.28091621398926 L 63.62501907348633 -11.35976314544678 L 63.62501907348633 -11.640625 C 63.62501907348633 -13.13187503814697 62.94073104858398 -13.796875 61.40626907348633 -13.796875 C 60.08781433105469 -13.796875 58.50056076049805 -13.38574981689453 56.68864440917969 -12.57487487792969 L 56.24797821044922 -12.37766647338867 L 56.03543853759766 -12.81112480163574 L 54.45731353759766 -16.02987480163574 L 54.24293899536133 -16.46716690063477 L 54.6744384765625 -16.69300079345703 C 56.74773025512695 -17.77799987792969 59.07572937011719 -18.328125 61.59376907348633 -18.328125 C 64.04481506347656 -18.328125 65.96489715576172 -17.77499961853027 67.30064392089844 -16.68412590026855 C 68.66673278808594 -15.56849956512451 69.35939788818359 -13.87162494659424 69.35939788818359 -11.640625 L 69.35939788818359 -1.77635683940025e-15 L 69.35939788818359 0.5 L 68.85939788818359 0.5 L 65.53127288818359 0.5 L 65.18901824951172 0.5 L 65.06514739990234 0.1809166669845581 L 64.40814208984375 -1.511703968048096 C 63.70161437988281 -0.7321793437004089 62.9666748046875 -0.1642219573259354 62.21681213378906 0.1807916611433029 C 61.30585479736328 0.5999583601951599 60.1183967590332 0.8125 58.68751907348633 0.8125 Z M 63.62501907348633 -7.576517581939697 L 62.2982292175293 -7.53154182434082 C 61.01360321044922 -7.492916584014893 60.06197738647461 -7.269416809082031 59.46781158447266 -6.867208480834961 C 58.93222808837891 -6.504666805267334 58.67189407348633 -5.955208301544189 58.67189407348633 -5.1875 C 58.67189407348633 -4.438041687011719 58.88722991943359 -3.671875 60.48439407348633 -3.671875 C 61.46343612670898 -3.671875 62.21643829345703 -3.938041687011719 62.78643798828125 -4.485583305358887 C 63.35073089599609 -5.027666568756104 63.62501907348633 -5.737666606903076 63.62501907348633 -6.65625 L 63.62501907348633 -7.576517581939697 Z M 24.82814598083496 0.8125 C 23.0219783782959 0.8125 21.57068824768066 0.2799166738986969 20.51460456848145 -0.7705000042915344 C 19.45777130126953 -1.821624994277954 18.92189598083496 -3.31820821762085 18.92189598083496 -5.21875 C 18.92189598083496 -7.24008321762085 19.650146484375 -8.759249687194824 21.08639526367188 -9.734000205993652 C 22.45622825622559 -10.66374969482422 24.5186882019043 -11.18420791625977 27.21647834777832 -11.28091621398926 L 29.76564598083496 -11.35976314544678 L 29.76564598083496 -11.640625 C 29.76564598083496 -13.13187503814697 29.08135414123535 -13.796875 27.54689598083496 -13.796875 C 26.22843742370605 -13.796875 24.64118766784668 -13.38574981689453 22.82927131652832 -12.57487487792969 L 22.38860511779785 -12.37766647338867 L 22.17606163024902 -12.81112480163574 L 20.59793663024902 -16.02987480163574 L 20.3835620880127 -16.46716690063477 L 20.81506156921387 -16.69300079345703 C 22.88835334777832 -17.77799987792969 25.21635437011719 -18.328125 27.73439598083496 -18.328125 C 30.18543815612793 -18.328125 32.10552215576172 -17.77499961853027 33.4412727355957 -16.68412590026855 C 34.80735397338867 -15.56849956512451 35.50001907348633 -13.87162494659424 35.50001907348633 -11.640625 L 35.50001907348633 -1.77635683940025e-15 L 35.50001907348633 0.5 L 35.00001907348633 0.5 L 31.67189598083496 0.5 L 31.32964515686035 0.5 L 31.20577049255371 0.1809166669845581 L 30.54876708984375 -1.511703968048096 C 29.84223747253418 -0.7321793437004089 29.10730171203613 -0.1642219573259354 28.35743713378906 0.1807916611433029 C 27.44647979736328 0.5999583601951599 26.2590217590332 0.8125 24.82814598083496 0.8125 Z M 29.76564598083496 -7.576517581939697 L 28.4388542175293 -7.53154182434082 C 27.15423011779785 -7.492916584014893 26.20260429382324 -7.269416809082031 25.60843658447266 -6.867208480834961 C 25.07285499572754 -6.504666805267334 24.81252098083496 -5.955208301544189 24.81252098083496 -5.1875 C 24.81252098083496 -4.438041687011719 25.02785491943359 -3.671875 26.62502098083496 -3.671875 C 27.60406303405762 -3.671875 28.35706329345703 -3.938041687011719 28.92706298828125 -4.485583305358887 C 29.49135398864746 -5.027666568756104 29.76564598083496 -5.737666606903076 29.76564598083496 -6.65625 L 29.76564598083496 -7.576517581939697 Z M 285.1562805175781 0.5 L 284.6562805175781 0.5 L 283.1250305175781 0.5 L 282.6250305175781 0.5 L 282.6250305175781 -1.77635683940025e-15 L 282.6250305175781 -11.140625 C 282.6250305175781 -12.66724967956543 282.339111328125 -13.77799987792969 281.7751770019531 -14.4419584274292 C 281.2240600585938 -15.09083366394043 280.3775939941406 -15.40625 279.1875305175781 -15.40625 C 277.6072387695312 -15.40625 276.4356994628906 -14.98045825958252 275.7054443359375 -14.14066696166992 C 274.9574279785156 -13.28045845031738 274.5781555175781 -11.87158298492432 274.5781555175781 -9.953125 L 274.5781555175781 -1.77635683940025e-15 L 274.5781555175781 0.5 L 274.0781555175781 0.5 L 272.5000305175781 0.5 L 272.0000305175781 0.5 L 272.0000305175781 -1.77635683940025e-15 L 272.0000305175781 -11.609375 C 272.0000305175781 -14.19974994659424 270.90771484375 -15.40625 268.5625305175781 -15.40625 C 266.9284057617188 -15.40625 265.7844848632812 -14.9603328704834 265.0653991699219 -14.04308319091797 C 264.3273620605469 -13.10158348083496 263.9531555175781 -11.53104209899902 263.9531555175781 -9.375 L 263.9531555175781 -1.77635683940025e-15 L 263.9531555175781 0.5 L 263.4531555175781 0.5 L 261.9062805175781 0.5 L 261.4062805175781 0.5 L 261.4062805175781 -1.77635683940025e-15 L 261.4062805175781 -16.984375 L 261.4062805175781 -17.484375 L 261.9062805175781 -17.484375 L 263.1875305175781 -17.484375 L 263.6219787597656 -17.484375 L 263.6826477050781 -17.05416679382324 L 263.8507385253906 -15.86141681671143 C 264.2752075195312 -16.34175872802734 264.7843017578125 -16.74217414855957 265.3731384277344 -17.05783271789551 C 266.3071594238281 -17.55858421325684 267.3486938476562 -17.8125 268.4687805175781 -17.8125 C 270.9960632324219 -17.8125 272.7594299316406 -16.95562171936035 273.7237243652344 -15.26280689239502 C 274.2538146972656 -15.96913528442383 274.9059448242188 -16.5407886505127 275.6701965332031 -16.96775054931641 C 276.6735534667969 -17.52829170227051 277.8254089355469 -17.8125 279.0937805175781 -17.8125 C 281.0830078125 -17.8125 282.6094360351562 -17.25987434387207 283.6305236816406 -16.16995811462402 C 284.6429443359375 -15.0892915725708 285.1562805175781 -13.3866662979126 285.1562805175781 -11.109375 L 285.1562805175781 -1.77635683940025e-15 L 285.1562805175781 0.5 Z M 232.6250152587891 0.5 L 232.1250152587891 0.5 L 230.5781402587891 0.5 L 230.0781402587891 0.5 L 230.0781402587891 -1.77635683940025e-15 L 230.0781402587891 -16.984375 L 230.0781402587891 -17.484375 L 230.5781402587891 -17.484375 L 231.8906402587891 -17.484375 L 232.3657684326172 -17.484375 L 232.3899841308594 -17.00983238220215 L 232.4745330810547 -15.35251522064209 C 232.9966735839844 -16.06626129150391 233.5479278564453 -16.61002540588379 234.1216888427734 -16.97616577148438 C 234.9913177490234 -17.53112411499023 236.0490570068359 -17.8125 237.2656402587891 -17.8125 C 238.0101470947266 -17.8125 238.8175659179688 -17.7363338470459 239.6653900146484 -17.58608245849609 L 240.1686859130859 -17.49687576293945 L 240.0684356689453 -16.99570846557617 L 239.7715606689453 -15.51133346557617 L 239.6687316894531 -14.99712467193604 L 239.1600189208984 -15.12429141998291 C 238.4945983886719 -15.2906665802002 237.7941436767578 -15.375 237.0781402587891 -15.375 C 235.7843170166016 -15.375 234.7496032714844 -14.83695793151855 233.9148559570312 -13.7301664352417 C 233.0589752197266 -12.59545803070068 232.6250152587891 -11.13016700744629 232.6250152587891 -9.375 L 232.6250152587891 -1.77635683940025e-15 L 232.6250152587891 0.5 Z M 151.4062652587891 0.5 L 150.9062652587891 0.5 L 149.3593902587891 0.5 L 148.8593902587891 0.5 L 148.8593902587891 -1.77635683940025e-15 L 148.8593902587891 -16.984375 L 148.8593902587891 -17.484375 L 149.3593902587891 -17.484375 L 150.6718902587891 -17.484375 L 151.1470184326172 -17.484375 L 151.1712341308594 -17.00983238220215 L 151.2557830810547 -15.35251426696777 C 151.7779235839844 -16.06625938415527 152.3291778564453 -16.61002540588379 152.9029388427734 -16.97616577148438 C 153.7725677490234 -17.53112411499023 154.8303070068359 -17.8125 156.0468902587891 -17.8125 C 156.7913970947266 -17.8125 157.5988159179688 -17.7363338470459 158.4466400146484 -17.58608245849609 L 158.9499359130859 -17.49687576293945 L 158.8496856689453 -16.99570846557617 L 158.5528106689453 -15.51133346557617 L 158.4499816894531 -14.99712467193604 L 157.9412689208984 -15.12429141998291 C 157.2758483886719 -15.2906665802002 156.5753936767578 -15.375 155.8593902587891 -15.375 C 154.5655670166016 -15.375 153.5308532714844 -14.83695793151855 152.6961059570312 -13.7301664352417 C 151.8402252197266 -12.59545803070068 151.4062652587891 -11.13016700744629 151.4062652587891 -9.375 L 151.4062652587891 -1.77635683940025e-15 L 151.4062652587891 0.5 Z M 136.6875152587891 0.5 L 129.6875152587891 0.5 L 129.1875152587891 0.5 L 129.1875152587891 -1.77635683940025e-15 L 129.1875152587891 -22.84375 L 129.1875152587891 -23.34375 L 129.6875152587891 -23.34375 L 135.9531402587891 -23.34375 C 138.870361328125 -23.34375 141.0613555908203 -22.828125 142.4652252197266 -21.81116676330566 C 143.9190979003906 -20.75795745849609 144.6562652587891 -19.16029167175293 144.6562652587891 -17.0625 C 144.6562652587891 -15.61666679382324 144.2046051025391 -14.39108371734619 143.3138122558594 -13.41983318328857 C 142.7812957763672 -12.83924293518066 142.1004486083984 -12.38212203979492 141.2791137695312 -12.05227565765381 C 142.3318786621094 -11.71059417724609 143.1718292236328 -11.22198104858398 143.7874450683594 -10.59145832061768 C 144.7371826171875 -9.618666648864746 145.2187652587891 -8.263125419616699 145.2187652587891 -6.5625 C 145.2187652587891 -4.310416698455811 144.4522705078125 -2.544958353042603 142.9405212402344 -1.315250039100647 C 141.4597778320312 -0.1107499971985817 139.3559417724609 0.5 136.6875152587891 0.5 Z M 131.7812652587891 -1.90625 L 136.6562652587891 -1.90625 C 138.6431427001953 -1.90625 140.1378173828125 -2.302249908447266 141.0987243652344 -3.08329176902771 C 142.0416412353516 -3.84975004196167 142.5000152587891 -4.987791538238525 142.5000152587891 -6.5625 C 142.5000152587891 -7.970166683197021 142.0225982666016 -8.990166664123535 141.04052734375 -9.680874824523926 C 140.0169830322266 -10.40066623687744 138.42626953125 -10.765625 136.3125152587891 -10.765625 L 131.7812652587891 -10.765625 L 131.7812652587891 -1.90625 Z M 131.7812652587891 -13.171875 L 136.3125152587891 -13.171875 C 138.3398132324219 -13.171875 139.8148498535156 -13.49945831298828 140.6966857910156 -14.14550018310547 C 141.5421447753906 -14.76491641998291 141.9531402587891 -15.72929191589355 141.9531402587891 -17.09375 C 141.9531402587891 -18.44241714477539 141.49072265625 -19.38729095458984 140.5395202636719 -19.98237419128418 C 139.5263977050781 -20.61612510681152 137.9623107910156 -20.9375 135.8906402587891 -20.9375 L 131.7812652587891 -20.9375 L 131.7812652587891 -13.171875 Z M 116.1406478881836 0.5 L 115.6406478881836 0.5 L 110.8750228881836 0.5 L 110.3750228881836 0.5 L 110.3750228881836 -1.77635683940025e-15 L 110.3750228881836 -24.3125 L 110.3750228881836 -24.8125 L 110.8750228881836 -24.8125 L 115.6406478881836 -24.8125 L 116.1406478881836 -24.8125 L 116.1406478881836 -24.3125 L 116.1406478881836 -1.77635683940025e-15 L 116.1406478881836 0.5 Z M 83.15705871582031 0.5 L 82.81252288818359 0.5 L 77.92189788818359 0.5 L 77.57735443115234 0.5 L 77.45464324951172 0.1780416667461395 L 70.79839324951172 -17.29070854187012 L 70.54006195068359 -17.96875 L 71.26564788818359 -17.96875 L 76.25002288818359 -17.96875 L 76.60843658447266 -17.96875 L 76.72351837158203 -17.62933349609375 L 80.09851837158203 -7.67620849609375 L 80.1015625 -7.667250156402588 L 80.10427093505859 -7.65820837020874 C 80.20287322998047 -7.326767921447754 80.29221343994141 -6.998532295227051 80.37213897705078 -6.67425012588501 C 80.45299530029297 -6.992448806762695 80.54439544677734 -7.321142196655273 80.64618682861328 -7.659625053405762 L 80.64860534667969 -7.667624950408936 L 80.65126800537109 -7.675541877746582 L 84.01064300537109 -17.62866592407227 L 84.12543487548828 -17.96875 L 84.48439788818359 -17.96875 L 89.46877288818359 -17.96875 L 90.19435119628906 -17.96875 L 89.93601989746094 -17.29070854187012 L 83.27976989746094 0.1780416667461395 L 83.15705871582031 0.5 Z M 45.17189407348633 0.5 L 44.67189407348633 0.5 L 39.90626907348633 0.5 L 39.40626907348633 0.5 L 39.40626907348633 -1.77635683940025e-15 L 39.40626907348633 -17.46875 L 39.40626907348633 -17.96875 L 39.90626907348633 -17.96875 L 43.51564407348633 -17.96875 L 43.91010284423828 -17.96875 L 44.00189590454102 -17.58512496948242 L 44.49423599243164 -15.52824020385742 C 45.00744247436523 -16.23821258544922 45.6378173828125 -16.83806991577148 46.37602233886719 -17.31770896911621 C 47.37606430053711 -17.96741676330566 48.47968673706055 -18.296875 49.65626907348633 -18.296875 C 50.33506393432617 -18.296875 50.91260528564453 -18.24566650390625 51.37285232543945 -18.14462471008301 L 51.79902267456055 -18.05108261108398 L 51.76401901245117 -17.61616706848145 L 51.40464401245117 -13.14741706848145 L 51.35643768310547 -12.54787540435791 L 50.77581405639648 -12.70483303070068 C 50.43473052978516 -12.79699993133545 50.00547790527344 -12.84375 49.50001907348633 -12.84375 C 48.11568832397461 -12.84375 47.03364562988281 -12.49391651153564 46.28389739990234 -11.80395793914795 C 45.53564453125 -11.11537456512451 45.17189407348633 -10.16241645812988 45.17189407348633 -8.890625 L 45.17189407348633 -1.77635683940025e-15 L 45.17189407348633 0.5 Z M 17.48439598083496 0.5 L 16.98439598083496 0.5 L 2.875020742416382 0.5 L 2.375020742416382 0.5 L 2.375020742416382 -1.77635683940025e-15 L 2.375020742416382 -22.84375 L 2.375020742416382 -23.34375 L 2.875020742416382 -23.34375 L 7.718770980834961 -23.34375 L 8.218770980834961 -23.34375 L 8.218770980834961 -22.84375 L 8.218770980834961 -4.5 L 16.98439598083496 -4.5 L 17.48439598083496 -4.5 L 17.48439598083496 -4 L 17.48439598083496 -1.77635683940025e-15 L 17.48439598083496 0.5 Z" stroke="none"/><path d="M 313.0781555175781 0.3125 C 315.2031555175781 0.3125 316.8437805175781 -0.0963333323597908 318.0000305175781 -0.9140416383743286 C 319.1562805175781 -1.731750011444092 319.7344055175781 -2.901041746139526 319.7344055175781 -4.421875 C 319.7344055175781 -5.182291507720947 319.5599060058594 -5.84375 319.2109375 -6.40625 C 318.8619689941406 -6.96875 318.3385314941406 -7.471333503723145 317.6406555175781 -7.914041519165039 C 316.9427185058594 -8.356749534606934 315.8281555175781 -8.854166984558105 314.2969055175781 -9.40625 C 312.4635314941406 -10.0625 311.2317810058594 -10.65625 310.6015625 -11.1875 C 309.9713439941406 -11.71875 309.6562805175781 -12.42708301544189 309.6562805175781 -13.3125 C 309.6562805175781 -14.125 310.0625305175781 -14.76041698455811 310.8750305175781 -15.21875 C 311.6875305175781 -15.67708301544189 312.7864685058594 -15.90625 314.1719055175781 -15.90625 C 315.5989685058594 -15.90625 317.1458435058594 -15.5625 318.8125305175781 -14.875 L 319.3906555175781 -16.28125 C 317.7447814941406 -16.96875 316.0052185058594 -17.3125 314.1719055175781 -17.3125 C 312.2552185058594 -17.3125 310.7630310058594 -16.94270896911621 309.6953125 -16.203125 C 308.6275939941406 -15.46354198455811 308.0937805175781 -14.45833301544189 308.0937805175781 -13.1875 C 308.0937805175781 -12.38541698455811 308.2682189941406 -11.70570850372314 308.6171875 -11.14841651916504 C 308.9661560058594 -10.59112453460693 309.4844055175781 -10.09112453460693 310.1719055175781 -9.648416519165039 C 310.8594055175781 -9.205750465393066 312.0520935058594 -8.677083015441895 313.7500305175781 -8.0625 C 315.3333435058594 -7.5 316.4713439941406 -6.927083492279053 317.1640625 -6.34375 C 317.8567810058594 -5.760416507720947 318.2031555175781 -5.041666507720947 318.2031555175781 -4.1875 C 318.2031555175781 -3.260416746139526 317.7682189941406 -2.518208265304565 316.8984375 -1.960916638374329 C 316.0286560058594 -1.403625011444092 314.7552185058594 -1.125 313.0781555175781 -1.125 C 311.1822814941406 -1.125 309.3802185058594 -1.552083373069763 307.6719055175781 -2.40625 L 307.6719055175781 -0.734375 C 309.0052185058594 -0.0364583320915699 310.8072814941406 0.3125 313.0781555175781 0.3125 M 297.2656555175781 0.3125 C 299.5572814941406 0.3125 301.3359375 -0.453125 302.6015625 -1.984375 C 303.8671875 -3.515625 304.5000305175781 -5.692708492279053 304.5000305175781 -8.515625 C 304.5000305175781 -11.390625 303.8984375 -13.57549953460693 302.6953125 -15.07029151916504 C 301.4921875 -16.56508255004883 299.7031555175781 -17.3125 297.3281555175781 -17.3125 C 296.0469055175781 -17.3125 294.9505310058594 -17.07291603088379 294.0390625 -16.59375 C 293.1275939941406 -16.11458396911621 292.3489685058594 -15.36458301544189 291.7031555175781 -14.34375 L 291.5937805175781 -14.34375 L 291.6406555175781 -15.671875 C 291.6822814941406 -16.44270896911621 291.7031555175781 -17.28645896911621 291.7031555175781 -18.203125 L 291.7031555175781 -24.3125 L 290.1562805175781 -24.3125 L 290.1562805175781 -1.77635683940025e-15 L 291.1250305175781 -1.77635683940025e-15 L 291.5625305175781 -2.5625 L 291.7031555175781 -2.5625 C 292.2656555175781 -1.645833373069763 293.0312805175781 -0.9375 294.0000305175781 -0.4375 C 294.9687805175781 0.0625 296.0572814941406 0.3125 297.2656555175781 0.3125 M 297.2969055175781 -15.90625 C 301.0052185058594 -15.90625 302.8594055175781 -13.453125 302.8594055175781 -8.546875 C 302.8594055175781 -6.151041507720947 302.3906555175781 -4.304666519165039 301.4531555175781 -3.007791757583618 C 300.5156555175781 -1.710916638374329 299.1197814941406 -1.0625 297.2656555175781 -1.0625 C 295.3594055175781 -1.0625 293.9557189941406 -1.619791626930237 293.0546875 -2.734375 C 292.1536560058594 -3.848958253860474 291.7031555175781 -5.6875 291.7031555175781 -8.25 L 291.7031555175781 -8.515625 C 291.7031555175781 -11.15104198455811 292.1354064941406 -13.04166698455811 293.0000305175781 -14.1875 C 293.8645935058594 -15.33333301544189 295.2969055175781 -15.90625 297.2969055175781 -15.90625 M 248.6406402587891 0.3125 C 251.4635620117188 0.3125 253.4271087646484 -0.5729166865348816 254.5312652587891 -2.34375 L 254.6250152587891 -2.34375 L 254.9062652587891 -1.77635683940025e-15 L 256.2187805175781 -1.77635683940025e-15 L 256.2187805175781 -16.984375 L 254.6875152587891 -16.984375 L 254.6875152587891 -7.609375 C 254.6875152587891 -5.307291507720947 254.2109375 -3.645833253860474 253.2578125 -2.625 C 252.3046875 -1.604166626930237 250.8177337646484 -1.09375 248.7968902587891 -1.09375 C 247.2864379882812 -1.09375 246.1718902587891 -1.481750011444092 245.4531402587891 -2.257791757583618 C 244.7343902587891 -3.033833265304565 244.3750152587891 -4.276041507720947 244.3750152587891 -5.984375 L 244.3750152587891 -16.984375 L 242.8437652587891 -16.984375 L 242.8437652587891 -5.890625 C 242.8437652587891 -1.755208373069763 244.7760620117188 0.3125 248.6406402587891 0.3125 M 222.1562652587891 0.3125 C 223.9166870117188 0.3125 225.3385620117188 0.046875 226.4218902587891 -0.484375 L 226.4218902587891 -1.921875 C 225.0989379882812 -1.369791626930237 223.6666870117188 -1.09375 222.1250152587891 -1.09375 C 220.1979370117188 -1.09375 218.6979370117188 -1.742166638374329 217.6250152587891 -3.039041757583618 C 216.5520629882812 -4.335916519165039 216.0156402587891 -6.130208492279053 216.0156402587891 -8.421875 C 216.0156402587891 -10.83854198455811 216.5520629882812 -12.69008350372314 217.6250152587891 -13.97654151916504 C 218.6979370117188 -15.26299953460693 220.2760620117188 -15.90625 222.3593902587891 -15.90625 C 223.4426879882812 -15.90625 224.7187652587891 -15.66145801544189 226.1875152587891 -15.171875 L 226.6093902587891 -16.546875 C 225.2656402587891 -17.05729103088379 223.8593902587891 -17.3125 222.3906402587891 -17.3125 C 219.9114379882812 -17.3125 217.9583129882812 -16.52862548828125 216.5312652587891 -14.96091651916504 C 215.1041870117188 -13.39320850372314 214.3906402587891 -11.203125 214.3906402587891 -8.390625 C 214.3906402587891 -5.651041507720947 215.0781402587891 -3.515625 216.4531402587891 -1.984375 C 217.8281402587891 -0.453125 219.7291870117188 0.3125 222.1562652587891 0.3125 M 202.5781402587891 0.3125 C 204.9948120117188 0.3125 206.8489379882812 -0.65625 208.1406402587891 -2.59375 L 208.2656402587891 -2.59375 L 208.6562652587891 -1.77635683940025e-15 L 209.6718902587891 -1.77635683940025e-15 L 209.6718902587891 -24.3125 L 208.1406402587891 -24.3125 L 208.1406402587891 -18.203125 C 208.1406402587891 -16.94270896911621 208.1718902587891 -15.65625 208.2343902587891 -14.34375 L 208.1406402587891 -14.34375 C 207.4323120117188 -15.42708301544189 206.6301879882812 -16.19270896911621 205.7343902587891 -16.640625 C 204.8385620117188 -17.08854103088379 203.7760620117188 -17.3125 202.5468902587891 -17.3125 C 200.2031402587891 -17.3125 198.4166870117188 -16.53645896911621 197.1875152587891 -14.984375 C 195.9583129882812 -13.43229198455811 195.3437652587891 -11.1875 195.3437652587891 -8.25 C 195.3437652587891 -5.458333492279053 195.9635620117188 -3.333333253860474 197.2031402587891 -1.875 C 198.4426879882812 -0.4166666567325592 200.2343902587891 0.3125 202.5781402587891 0.3125 M 202.5468902587891 -15.90625 C 204.5156402587891 -15.90625 205.9401092529297 -15.33070850372314 206.8203125 -14.17966651916504 C 207.7005157470703 -13.02862453460693 208.1406402587891 -11.140625 208.1406402587891 -8.515625 L 208.1406402587891 -8.25 C 208.1406402587891 -5.6875 207.6926879882812 -3.848958253860474 206.7968902587891 -2.734375 C 205.9010620117188 -1.619791626930237 204.4948120117188 -1.0625 202.5781402587891 -1.0625 C 198.8385620117188 -1.0625 196.9687652587891 -3.46875 196.9687652587891 -8.28125 C 196.9687652587891 -10.76041698455811 197.4348907470703 -12.65104198455811 198.3671875 -13.953125 C 199.2994842529297 -15.25520801544189 200.6926879882812 -15.90625 202.5468902587891 -15.90625 M 183.3437652587891 0.3125 C 184.5729370117188 0.3125 185.6380157470703 0.085958331823349 186.5390625 -0.367166668176651 C 187.4401092529297 -0.8202916383743286 188.3176879882812 -1.59375 189.1718902587891 -2.6875 L 189.2968902587891 -2.6875 L 189.6875152587891 -1.77635683940025e-15 L 190.8281402587891 -1.77635683940025e-15 L 190.8281402587891 -11.296875 C 190.8281402587891 -13.34895801544189 190.3671875 -14.859375 189.4453125 -15.828125 C 188.5234375 -16.796875 187.1301879882812 -17.28125 185.2656402587891 -17.28125 C 183.4426879882812 -17.28125 181.5989379882812 -16.84375 179.7343902587891 -15.96875 L 180.3125152587891 -14.625 C 182.0000152587891 -15.5 183.6301879882812 -15.9375 185.2031402587891 -15.9375 C 186.6614379882812 -15.9375 187.7187652587891 -15.52604198455811 188.3750152587891 -14.703125 C 189.0312652587891 -13.88020801544189 189.3593902587891 -12.66145801544189 189.3593902587891 -11.046875 L 189.3593902587891 -9.921875 L 186.1250152587891 -9.828125 C 183.5104370117188 -9.776041984558105 181.5130157470703 -9.291666984558105 180.1328125 -8.375 C 178.7526092529297 -7.458333492279053 178.0625152587891 -6.171875 178.0625152587891 -4.515625 C 178.0625152587891 -3.005208253860474 178.5260620117188 -1.822916626930237 179.4531402587891 -0.96875 C 180.3801879882812 -0.1145833358168602 181.6770629882812 0.3125 183.3437652587891 0.3125 M 189.2968902587891 -8.640625 L 189.2968902587891 -6.96875 C 189.2968902587891 -5.125 188.7734375 -3.684916734695435 187.7265625 -2.648416757583618 C 186.6796875 -1.611958384513855 185.2500152587891 -1.09375 183.4375152587891 -1.09375 C 182.2500152587891 -1.09375 181.3307342529297 -1.388000011444092 180.6796875 -1.976541638374329 C 180.0286407470703 -2.565083265304565 179.7031402587891 -3.390625 179.7031402587891 -4.453125 C 179.7031402587891 -5.786458492279053 180.2109375 -6.768208503723145 181.2265625 -7.398416519165039 C 182.2421875 -8.028624534606934 183.9426879882812 -8.401041984558105 186.3281402587891 -8.515625 L 189.2968902587891 -8.640625 M 168.6718902587891 0.3125 C 169.6510620117188 0.3125 170.5468902587891 0.2370000034570694 171.3593902587891 0.085958331823349 C 172.1718902587891 -0.0650833323597908 173.0573120117188 -0.3489583432674408 174.0156402587891 -0.765625 L 174.0156402587891 -2.171875 C 172.8906402587891 -1.723958373069763 171.9609375 -1.432291626930237 171.2265625 -1.296875 C 170.4921875 -1.161458373069763 169.6406402587891 -1.09375 168.6718902587891 -1.09375 C 166.6823120117188 -1.09375 165.1536407470703 -1.708333373069763 164.0859375 -2.9375 C 163.0182342529297 -4.166666507720947 162.4739379882812 -5.947916507720947 162.4531402587891 -8.28125 L 174.6875152587891 -8.28125 L 174.6875152587891 -9.53125 C 174.6875152587891 -11.92708301544189 174.1093902587891 -13.82291698455811 172.9531402587891 -15.21875 C 171.7968902587891 -16.61458396911621 170.2187652587891 -17.3125 168.2187652587891 -17.3125 C 165.9583129882812 -17.3125 164.1614379882812 -16.49737548828125 162.8281402587891 -14.86716651916504 C 161.4948120117188 -13.23695850372314 160.8281402587891 -11.06770801544189 160.8281402587891 -8.359375 C 160.8281402587891 -5.619791507720947 161.5182342529297 -3.489583253860474 162.8984375 -1.96875 C 164.2786407470703 -0.4479166567325592 166.2031402587891 0.3125 168.6718902587891 0.3125 M 168.2187652587891 -15.9375 C 169.7291870117188 -15.9375 170.9114379882812 -15.38279151916504 171.7656402587891 -14.27341651916504 C 172.6198120117188 -13.16404151916504 173.0468902587891 -11.625 173.0468902587891 -9.65625 L 162.5468902587891 -9.65625 C 162.7135620117188 -11.6875 163.2916870117188 -13.24216651916504 164.2812652587891 -14.32029151916504 C 165.2708129882812 -15.39841651916504 166.5833129882812 -15.9375 168.2187652587891 -15.9375 M 99.87502288818359 0.3125 C 101.2396011352539 0.3125 102.3958511352539 0.210958331823349 103.3437728881836 0.007833333685994148 C 104.2916870117188 -0.195291668176651 105.1823120117188 -0.5052083134651184 106.0156478881836 -0.921875 L 106.0156478881836 -4.609375 C 104.9948120117188 -4.130208492279053 104.0156478881836 -3.78125 103.0781478881836 -3.5625 C 102.1406478881836 -3.34375 101.1458511352539 -3.234375 100.0937728881836 -3.234375 C 98.73960113525391 -3.234375 97.68752288818359 -3.614583253860474 96.93752288818359 -4.375 C 96.18752288818359 -5.135416507720947 95.78647613525391 -6.192708492279053 95.73439788818359 -7.546875 L 107.0000228881836 -7.546875 L 107.0000228881836 -9.859375 C 107.0000228881836 -12.33854198455811 106.3125228881836 -14.28125 104.9375228881836 -15.6875 C 103.5625228881836 -17.09375 101.6406478881836 -17.796875 99.17189788818359 -17.796875 C 96.58856201171875 -17.796875 94.56510162353516 -16.99737548828125 93.1015625 -15.39841651916504 C 91.63802337646484 -13.79950046539307 90.90627288818359 -11.53645801544189 90.90627288818359 -8.609375 C 90.90627288818359 -5.765625 91.69793701171875 -3.567708253860474 93.28127288818359 -2.015625 C 94.86460113525391 -0.4635416567325592 97.06252288818359 0.3125 99.87502288818359 0.3125 M 99.20314788818359 -14.40625 C 100.2135620117188 -14.40625 101.0156478881836 -14.08591651916504 101.6093978881836 -13.44529151916504 C 102.2031478881836 -12.80466651916504 102.5104370117188 -11.89583301544189 102.5312728881836 -10.71875 L 95.84377288818359 -10.71875 C 95.92710113525391 -11.89583301544189 96.25522613525391 -12.80466651916504 96.82814788818359 -13.44529151916504 C 97.40106201171875 -14.08591651916504 98.19272613525391 -14.40625 99.20314788818359 -14.40625 M 58.68751907348633 0.3125 C 60.05210494995117 0.3125 61.15885543823242 0.117208331823349 62.0078125 -0.273416668176651 C 62.85676956176758 -0.6640416383743286 63.68231201171875 -1.364583373069763 64.48439788818359 -2.375 L 64.60939788818359 -2.375 L 65.53127288818359 -1.77635683940025e-15 L 68.85939788818359 -1.77635683940025e-15 L 68.85939788818359 -11.640625 C 68.85939788818359 -13.72395801544189 68.23439788818359 -15.27604198455811 66.98439788818359 -16.296875 C 65.73439788818359 -17.31770896911621 63.93751907348633 -17.828125 61.59376907348633 -17.828125 C 59.14585494995117 -17.828125 56.91668701171875 -17.30208396911621 54.90626907348633 -16.25 L 56.48439407348633 -13.03125 C 58.36981201171875 -13.875 60.01043701171875 -14.296875 61.40626907348633 -14.296875 C 63.21876907348633 -14.296875 64.12502288818359 -13.41145801544189 64.12502288818359 -11.640625 L 64.12502288818359 -10.875 L 61.09376907348633 -10.78125 C 58.47918701171875 -10.6875 56.5234375 -10.20049953460693 55.2265625 -9.320291519165039 C 53.9296875 -8.440125465393066 53.28126907348633 -7.072916507720947 53.28126907348633 -5.21875 C 53.28126907348633 -3.447916746139526 53.76301956176758 -2.083333253860474 54.7265625 -1.125 C 55.69010543823242 -0.1666666716337204 57.01043701171875 0.3125 58.68751907348633 0.3125 M 64.12502288818359 -8.09375 L 64.12502288818359 -6.65625 C 64.12502288818359 -5.604166507720947 63.79426956176758 -4.760416507720947 63.1328125 -4.125 C 62.47135543823242 -3.489583253860474 61.58856201171875 -3.171875 60.48439407348633 -3.171875 C 58.94272994995117 -3.171875 58.17189407348633 -3.84375 58.17189407348633 -5.1875 C 58.17189407348633 -6.125 58.51043701171875 -6.822916507720947 59.18751907348633 -7.28125 C 59.86460494995117 -7.739583492279053 60.89585494995117 -7.989583492279053 62.28126907348633 -8.03125 L 64.12502288818359 -8.09375 M 24.82814598083496 0.3125 C 26.19272994995117 0.3125 27.29947853088379 0.117208331823349 28.1484375 -0.273416668176651 C 28.99739646911621 -0.6640416383743286 29.82293701171875 -1.364583373069763 30.62502098083496 -2.375 L 30.75002098083496 -2.375 L 31.67189598083496 -1.77635683940025e-15 L 35.00001907348633 -1.77635683940025e-15 L 35.00001907348633 -11.640625 C 35.00001907348633 -13.72395801544189 34.37501907348633 -15.27604198455811 33.12501907348633 -16.296875 C 31.87502098083496 -17.31770896911621 30.07814598083496 -17.828125 27.73439598083496 -17.828125 C 25.28647994995117 -17.828125 23.05731201171875 -17.30208396911621 21.04689598083496 -16.25 L 22.62502098083496 -13.03125 C 24.51043701171875 -13.875 26.15106201171875 -14.296875 27.54689598083496 -14.296875 C 29.35939598083496 -14.296875 30.26564598083496 -13.41145801544189 30.26564598083496 -11.640625 L 30.26564598083496 -10.875 L 27.23439598083496 -10.78125 C 24.61981201171875 -10.6875 22.6640625 -10.20049953460693 21.3671875 -9.320291519165039 C 20.0703125 -8.440125465393066 19.42189598083496 -7.072916507720947 19.42189598083496 -5.21875 C 19.42189598083496 -3.447916746139526 19.90364646911621 -2.083333253860474 20.8671875 -1.125 C 21.83072853088379 -0.1666666716337204 23.15106201171875 0.3125 24.82814598083496 0.3125 M 30.26564598083496 -8.09375 L 30.26564598083496 -6.65625 C 30.26564598083496 -5.604166507720947 29.93489646911621 -4.760416507720947 29.2734375 -4.125 C 28.61197853088379 -3.489583253860474 27.72918701171875 -3.171875 26.62502098083496 -3.171875 C 25.08335494995117 -3.171875 24.31252098083496 -3.84375 24.31252098083496 -5.1875 C 24.31252098083496 -6.125 24.65106201171875 -6.822916507720947 25.32814598083496 -7.28125 C 26.00522994995117 -7.739583492279053 27.03647994995117 -7.989583492279053 28.42189598083496 -8.03125 L 30.26564598083496 -8.09375 M 284.6562805175781 -1.77635683940025e-15 L 284.6562805175781 -11.109375 C 284.6562805175781 -13.265625 284.1927185058594 -14.83854198455811 283.2656555175781 -15.828125 C 282.3385314941406 -16.81770896911621 280.9479064941406 -17.3125 279.0937805175781 -17.3125 C 277.9062805175781 -17.3125 276.8463439941406 -17.05208396911621 275.9140625 -16.53125 C 274.9817810058594 -16.01041603088379 274.2395935058594 -15.265625 273.6875305175781 -14.296875 L 273.6250305175781 -14.296875 C 272.8645935058594 -16.30729103088379 271.1458435058594 -17.3125 268.4687805175781 -17.3125 C 267.4270935058594 -17.3125 266.4739685058594 -17.08070755004883 265.6094055175781 -16.61716651916504 C 264.7447814941406 -16.15366744995117 264.0781555175781 -15.5 263.6094055175781 -14.65625 L 263.5156555175781 -14.65625 L 263.1875305175781 -16.984375 L 261.9062805175781 -16.984375 L 261.9062805175781 -1.77635683940025e-15 L 263.4531555175781 -1.77635683940025e-15 L 263.4531555175781 -9.375 C 263.4531555175781 -11.65625 263.8594055175781 -13.31508350372314 264.6719055175781 -14.35154151916504 C 265.4844055175781 -15.38799953460693 266.7812805175781 -15.90625 268.5625305175781 -15.90625 C 271.1875305175781 -15.90625 272.5000305175781 -14.47395801544189 272.5000305175781 -11.609375 L 272.5000305175781 -1.77635683940025e-15 L 274.0781555175781 -1.77635683940025e-15 L 274.0781555175781 -9.953125 C 274.0781555175781 -12.00520801544189 274.4947814941406 -13.51041698455811 275.3281555175781 -14.46875 C 276.1614685058594 -15.42708301544189 277.4479064941406 -15.90625 279.1875305175781 -15.90625 C 280.5208435058594 -15.90625 281.5104064941406 -15.52604198455811 282.1562805175781 -14.765625 C 282.8020935058594 -14.00520801544189 283.1250305175781 -12.796875 283.1250305175781 -11.140625 L 283.1250305175781 -1.77635683940025e-15 L 284.6562805175781 -1.77635683940025e-15 M 232.1250152587891 -1.77635683940025e-15 L 232.1250152587891 -9.375 C 232.1250152587891 -11.25 232.5885620117188 -12.80208301544189 233.5156402587891 -14.03125 C 234.4426879882812 -15.26041698455811 235.6301879882812 -15.875 237.0781402587891 -15.875 C 237.8385620117188 -15.875 238.5729370117188 -15.78645801544189 239.2812652587891 -15.609375 L 239.5781402587891 -17.09375 C 238.7551879882812 -17.23958396911621 237.9843902587891 -17.3125 237.2656402587891 -17.3125 C 236.1406402587891 -17.3125 235.1823120117188 -17.05987548828125 234.3906402587891 -16.55466651916504 C 233.5989379882812 -16.04945755004883 232.8541870117188 -15.171875 232.1562652587891 -13.921875 L 232.0468902587891 -13.921875 L 231.8906402587891 -16.984375 L 230.5781402587891 -16.984375 L 230.5781402587891 -1.77635683940025e-15 L 232.1250152587891 -1.77635683940025e-15 M 150.9062652587891 -1.77635683940025e-15 L 150.9062652587891 -9.375 C 150.9062652587891 -11.25 151.3698120117188 -12.80208301544189 152.2968902587891 -14.03125 C 153.2239379882812 -15.26041698455811 154.4114379882812 -15.875 155.8593902587891 -15.875 C 156.6198120117188 -15.875 157.3541870117188 -15.78645801544189 158.0625152587891 -15.609375 L 158.3593902587891 -17.09375 C 157.5364379882812 -17.23958396911621 156.7656402587891 -17.3125 156.0468902587891 -17.3125 C 154.9218902587891 -17.3125 153.9635620117188 -17.05987548828125 153.1718902587891 -16.55466651916504 C 152.3801879882812 -16.04945755004883 151.6354370117188 -15.171875 150.9375152587891 -13.921875 L 150.8281402587891 -13.921875 L 150.6718902587891 -16.984375 L 149.3593902587891 -16.984375 L 149.3593902587891 -1.77635683940025e-15 L 150.9062652587891 -1.77635683940025e-15 M 136.6875152587891 -1.77635683940025e-15 C 139.2500152587891 -1.77635683940025e-15 141.2291870117188 -0.5677083134651184 142.6250152587891 -1.703125 C 144.0208129882812 -2.838541746139526 144.7187652587891 -4.458333492279053 144.7187652587891 -6.5625 C 144.7187652587891 -8.135416984558105 144.2890625 -9.361958503723145 143.4296875 -10.24216651916504 C 142.5703125 -11.12237453460693 141.2291870117188 -11.69791698455811 139.4062652587891 -11.96875 L 139.4062652587891 -12.0625 C 140.9583129882812 -12.3125 142.1380157470703 -12.87758350372314 142.9453125 -13.75779151916504 C 143.7526092529297 -14.63799953460693 144.1562652587891 -15.73958301544189 144.1562652587891 -17.0625 C 144.1562652587891 -19 143.4948120117188 -20.44791603088379 142.1718902587891 -21.40625 C 140.8489379882812 -22.36458396911621 138.7760620117188 -22.84375 135.9531402587891 -22.84375 L 129.6875152587891 -22.84375 L 129.6875152587891 -1.77635683940025e-15 L 136.6875152587891 -1.77635683940025e-15 M 131.2812652587891 -11.265625 L 136.3125152587891 -11.265625 C 140.7708129882812 -11.265625 143.0000152587891 -9.697916984558105 143.0000152587891 -6.5625 C 143.0000152587891 -3.125 140.8854370117188 -1.40625 136.6562652587891 -1.40625 L 131.2812652587891 -1.40625 L 131.2812652587891 -11.265625 M 131.2812652587891 -21.4375 L 135.8906402587891 -21.4375 C 138.0676879882812 -21.4375 139.7057342529297 -21.09375 140.8046875 -20.40625 C 141.9036407470703 -19.71875 142.4531402587891 -18.61458396911621 142.4531402587891 -17.09375 C 142.4531402587891 -15.57291698455811 141.9661407470703 -14.45570850372314 140.9921875 -13.74216651916504 C 140.0182342529297 -13.02862453460693 138.4583129882812 -12.671875 136.3125152587891 -12.671875 L 131.2812652587891 -12.671875 L 131.2812652587891 -21.4375 M 115.6406478881836 -1.77635683940025e-15 L 115.6406478881836 -24.3125 L 110.8750228881836 -24.3125 L 110.8750228881836 -1.77635683940025e-15 L 115.6406478881836 -1.77635683940025e-15 M 82.81252288818359 -1.77635683940025e-15 L 89.46877288818359 -17.46875 L 84.48439788818359 -17.46875 L 81.12502288818359 -7.515625 C 80.70835113525391 -6.130208492279053 80.47397613525391 -4.9375 80.42189788818359 -3.9375 L 80.32814788818359 -3.9375 C 80.23439788818359 -5.0625 80.00002288818359 -6.255208492279053 79.62502288818359 -7.515625 L 76.25002288818359 -17.46875 L 71.26564788818359 -17.46875 L 77.92189788818359 -1.77635683940025e-15 L 82.81252288818359 -1.77635683940025e-15 M 44.67189407348633 -1.77635683940025e-15 L 44.67189407348633 -8.890625 C 44.67189407348633 -10.296875 45.09635543823242 -11.390625 45.9453125 -12.171875 C 46.79426956176758 -12.953125 47.97918701171875 -13.34375 49.50001907348633 -13.34375 C 50.05210494995117 -13.34375 50.52085494995117 -13.29166698455811 50.90626907348633 -13.1875 L 51.26564407348633 -17.65625 C 50.83856201171875 -17.75 50.30210494995117 -17.796875 49.65626907348633 -17.796875 C 48.57293701171875 -17.796875 47.5703125 -17.49737548828125 46.6484375 -16.89841651916504 C 45.7265625 -16.29945755004883 44.99481201171875 -15.51041698455811 44.45314407348633 -14.53125 L 44.21876907348633 -14.53125 L 43.51564407348633 -17.46875 L 39.90626907348633 -17.46875 L 39.90626907348633 -1.77635683940025e-15 L 44.67189407348633 -1.77635683940025e-15 M 16.98439598083496 -1.77635683940025e-15 L 16.98439598083496 -4 L 7.718770980834961 -4 L 7.718770980834961 -22.84375 L 2.875020742416382 -22.84375 L 2.875020742416382 -1.77635683940025e-15 L 16.98439598083496 -1.77635683940025e-15 M 313.0781555175781 1.3125 C 310.65478515625 1.3125 308.6798095703125 0.921916663646698 307.2081604003906 0.1515833288431168 L 306.6719055175781 -0.1290833353996277 L 306.6719055175781 -4.024291515350342 L 308.1191101074219 -3.300666570663452 C 309.6793518066406 -2.520541667938232 311.3478088378906 -2.125 313.0781555175781 -2.125 C 314.5530700683594 -2.125 315.6568908691406 -2.353083372116089 316.3589477539062 -2.802916765213013 C 316.9427795410156 -3.177000045776367 317.2031555175781 -3.604000091552734 317.2031555175781 -4.1875 C 317.2031555175781 -4.744208335876465 316.9860534667969 -5.186333179473877 316.5199279785156 -5.578833103179932 C 315.9224243164062 -6.081999778747559 314.8778686523438 -6.600583553314209 313.415283203125 -7.120208263397217 L 313.4096984863281 -7.122208118438721 C 311.6245727539062 -7.768333435058594 310.3883972167969 -8.319666862487793 309.6305236816406 -8.807624816894531 C 308.8216552734375 -9.328499794006348 308.195556640625 -9.9375 307.7696533203125 -10.61770820617676 C 307.3211364746094 -11.33391666412354 307.0937805175781 -12.19854164123535 307.0937805175781 -13.1875 C 307.0937805175781 -14.77725028991699 307.7964782714844 -16.10429191589355 309.1258850097656 -17.02516746520996 C 310.3590698242188 -17.87937545776367 312.0568237304688 -18.3125 314.1719055175781 -18.3125 C 316.129638671875 -18.3125 318.01513671875 -17.93954086303711 319.7760620117188 -17.20400047302246 L 320.6936340332031 -16.82070922851562 L 319.3567199707031 -13.56879138946533 L 318.4311828613281 -13.95054149627686 C 316.8938598632812 -14.58470821380615 315.4608154296875 -14.90625 314.1719055175781 -14.90625 C 312.9671936035156 -14.90625 312.0232849121094 -14.71833324432373 311.3663635253906 -14.34779167175293 C 310.7406311035156 -13.99479198455811 310.6562805175781 -13.62637519836426 310.6562805175781 -13.3125 C 310.6562805175781 -12.72358322143555 310.8436889648438 -12.29129123687744 311.24609375 -11.95208358764648 C 311.6144714355469 -11.64154148101807 312.5012817382812 -11.11112499237061 314.6338806152344 -10.34774971008301 C 316.251220703125 -9.76462459564209 317.4092712402344 -9.245041847229004 318.1763000488281 -8.758500099182129 C 318.9992980957031 -8.236374855041504 319.63330078125 -7.622375011444092 320.0606994628906 -6.933416843414307 C 320.5077209472656 -6.212833404541016 320.7344055175781 -5.367833137512207 320.7344055175781 -4.421875 C 320.7344055175781 -2.564666748046875 320.0086975097656 -1.10979163646698 318.5774230957031 -0.09758333116769791 C 317.25439453125 0.8380833268165588 315.4041442871094 1.3125 313.0781555175781 1.3125 Z M 297.2656555175781 1.3125 C 295.9018249511719 1.3125 294.6488037109375 1.022708296775818 293.5413818359375 0.4511249959468842 C 293.0572509765625 0.2012407928705215 292.6141662597656 -0.09567160159349442 292.2142333984375 -0.4377152919769287 L 291.9687805175781 1 L 289.1562805175781 1 L 289.1562805175781 -25.3125 L 292.7031555175781 -25.3125 L 292.7031555175781 -18.203125 C 292.7031555175781 -17.7591381072998 292.6982421875 -17.32878112792969 292.6884765625 -16.91468048095703 C 292.9705810546875 -17.12875938415527 293.2658386230469 -17.31700706481934 293.57373046875 -17.47887420654297 C 294.6258850097656 -18.03204154968262 295.8890686035156 -18.3125 297.3281555175781 -18.3125 C 300.0097351074219 -18.3125 302.0776062011719 -17.43262481689453 303.4743041992188 -15.69729137420654 C 304.8184814453125 -14.0272912979126 305.5000305175781 -11.61104202270508 305.5000305175781 -8.515625 C 305.5000305175781 -5.467208385467529 304.7841796875 -3.055416584014893 303.3723449707031 -1.347291707992554 C 301.9136047363281 0.4176250100135803 299.8590087890625 1.3125 297.2656555175781 1.3125 Z M 297.2969055175781 -14.90625 C 295.6134338378906 -14.90625 294.4690246582031 -14.47412490844727 293.7982788085938 -13.58516693115234 C 293.0715942382812 -12.62216663360596 292.7031555175781 -10.91650009155273 292.7031555175781 -8.515625 L 292.7031555175781 -8.25 C 292.7031555175781 -5.934124946594238 293.0830688476562 -4.289916515350342 293.8323669433594 -3.363041639328003 C 294.5398254394531 -2.487916707992554 295.662841796875 -2.0625 297.2656555175781 -2.0625 C 298.7932739257812 -2.0625 299.89794921875 -2.56333327293396 300.6427307128906 -3.593625068664551 C 301.4500732421875 -4.710416793823242 301.8594055175781 -6.37695837020874 301.8594055175781 -8.546875 C 301.8594055175781 -14.24704170227051 299.2555236816406 -14.90625 297.2969055175781 -14.90625 Z M 248.6406402587891 1.3125 C 246.4292755126953 1.3125 244.7206878662109 0.6840000152587891 243.5623474121094 -0.5554999709129333 C 242.4219818115234 -1.775791645050049 241.8437652587891 -3.570791721343994 241.8437652587891 -5.890625 L 241.8437652587891 -17.984375 L 245.3750152587891 -17.984375 L 245.3750152587891 -5.984375 C 245.3750152587891 -4.544083118438721 245.6481475830078 -3.518916606903076 246.1868133544922 -2.937291622161865 C 246.7052307128906 -2.377541780471802 247.5833892822266 -2.09375 248.7968902587891 -2.09375 C 250.5199737548828 -2.09375 251.7749328613281 -2.502083301544189 252.5269012451172 -3.307458400726318 C 253.2970275878906 -4.132291793823242 253.6875152587891 -5.579666614532471 253.6875152587891 -7.609375 L 253.6875152587891 -17.984375 L 257.2187805175781 -17.984375 L 257.2187805175781 1 L 254.0191040039062 1 L 253.8791198730469 -0.1665479093790054 C 252.5759735107422 0.8162861466407776 250.8229675292969 1.3125 248.6406402587891 1.3125 Z M 222.1562652587891 1.3125 C 219.4445648193359 1.3125 217.2754364013672 0.4280416667461395 215.7091064453125 -1.316249966621399 C 214.1706848144531 -3.029500007629395 213.3906402587891 -5.409625053405762 213.3906402587891 -8.390625 C 213.3906402587891 -11.44674968719482 214.1985168457031 -13.88379192352295 215.7917633056641 -15.63408374786377 C 217.4095611572266 -17.41133308410645 219.6297760009766 -18.3125 222.3906402587891 -18.3125 C 223.9743194580078 -18.3125 225.51318359375 -18.03300094604492 226.9644775390625 -17.48170852661133 L 227.8401947021484 -17.14908409118652 L 226.8430633544922 -13.89925003051758 L 225.8713073730469 -14.2232084274292 C 224.5115661621094 -14.67641639709473 223.3299865722656 -14.90625 222.3593902587891 -14.90625 C 220.5716094970703 -14.90625 219.2741851806641 -14.3926248550415 218.3929748535156 -13.33604145050049 C 217.4790649414062 -12.24024963378906 217.0156402587891 -10.58687496185303 217.0156402587891 -8.421875 C 217.0156402587891 -6.379749774932861 217.4798889160156 -4.783166885375977 218.3955230712891 -3.676500082015991 C 219.276611328125 -2.611458301544189 220.4965667724609 -2.09375 222.1250152587891 -2.09375 C 223.5265655517578 -2.09375 224.8426513671875 -2.346416711807251 226.0367736816406 -2.844749927520752 L 227.4218902587891 -3.422749996185303 L 227.4218902587891 0.1389999985694885 L 226.8621826171875 0.4134583473205566 C 225.6456909179688 1.0100417137146 224.0623931884766 1.3125 222.1562652587891 1.3125 Z M 202.5781402587891 1.3125 C 199.9384307861328 1.3125 197.8736877441406 0.4579583406448364 196.4411926269531 -1.227375030517578 C 195.0494384765625 -2.864708423614502 194.3437652587891 -5.227458477020264 194.3437652587891 -8.25 C 194.3437652587891 -11.40474987030029 195.0368194580078 -13.87941646575928 196.4036102294922 -15.60520839691162 C 197.8262634277344 -17.40162467956543 199.8931427001953 -18.3125 202.5468902587891 -18.3125 C 203.9269866943359 -18.3125 205.1498565673828 -18.05091667175293 206.1816101074219 -17.53504180908203 C 206.5163726806641 -17.36765480041504 206.8398284912109 -17.16347503662109 207.1511840820312 -16.92328643798828 C 207.1441650390625 -17.35387420654297 207.1406402587891 -17.78094673156738 207.1406402587891 -18.203125 L 207.1406402587891 -25.3125 L 210.6718902587891 -25.3125 L 210.6718902587891 1 L 207.7956085205078 1 L 207.5792846679688 -0.436454564332962 C 206.2441864013672 0.7255685329437256 204.5696411132812 1.3125 202.5781402587891 1.3125 Z M 202.5468902587891 -14.90625 C 201.0211944580078 -14.90625 199.9199371337891 -14.4040412902832 199.1802673339844 -13.37095832824707 C 198.3763885498047 -12.24820804595947 197.9687652587891 -10.53579139709473 197.9687652587891 -8.28125 C 197.9687652587891 -6.113749980926514 198.3698120117188 -4.498624801635742 199.1607360839844 -3.480791568756104 C 199.9023132324219 -2.526416778564453 201.0201873779297 -2.0625 202.5781402587891 -2.0625 C 204.1902770996094 -2.0625 205.3152770996094 -2.487208366394043 206.0174407958984 -3.360833406448364 C 206.7627258300781 -4.288166522979736 207.1406402587891 -5.933125019073486 207.1406402587891 -8.25 L 207.1406402587891 -8.515625 C 207.1406402587891 -10.90370845794678 206.7656097412109 -12.60495853424072 206.0259399414062 -13.57220840454102 C 205.3395233154297 -14.46987533569336 204.2014770507812 -14.90625 202.5468902587891 -14.90625 Z M 183.3437652587891 1.3125 C 181.4257659912109 1.3125 179.8887634277344 0.7924166917800903 178.7755279541016 -0.2333333343267441 C 177.6388549804688 -1.280583381652832 177.0625152587891 -2.721374988555908 177.0625152587891 -4.515625 C 177.0625152587891 -6.519999980926514 177.9093933105469 -8.098750114440918 179.5795593261719 -9.208000183105469 C 181.1346282958984 -10.24082660675049 183.2672729492188 -10.7706823348999 186.0989685058594 -10.82779216766357 L 188.3593902587891 -10.89331245422363 L 188.3593902587891 -11.046875 C 188.3593902587891 -12.42170810699463 188.1016082763672 -13.44208335876465 187.5931854248047 -14.07962512969971 C 187.1328582763672 -14.65687465667725 186.3510589599609 -14.9375 185.2031402587891 -14.9375 C 183.7993927001953 -14.9375 182.3088073730469 -14.53366661071777 180.7728576660156 -13.73725032806396 L 179.8186950683594 -13.24250030517578 L 178.4332275390625 -16.46279144287109 L 179.3095550537109 -16.87404251098633 C 181.2993469238281 -17.80779075622559 183.30322265625 -18.28125 185.2656402587891 -18.28125 C 187.4060211181641 -18.28125 189.0560150146484 -17.68783378601074 190.1697235107422 -16.51749992370605 C 191.2701873779297 -15.36108303070068 191.8281402587891 -13.60462474822998 191.8281402587891 -11.296875 L 191.8281402587891 1 L 188.8223571777344 1 L 188.5913696289062 -0.5893688797950745 C 188.0681457519531 -0.1204505264759064 187.5324554443359 0.2525824308395386 186.9883575439453 0.5262083411216736 C 185.9508514404297 1.047958374023438 184.7246398925781 1.3125 183.3437652587891 1.3125 Z M 186.3702239990234 -7.516507625579834 C 183.6310882568359 -7.384321689605713 182.3478698730469 -6.917354583740234 181.7538146972656 -6.548708438873291 C 181.0370178222656 -6.103916645050049 180.7031402587891 -5.438041687011719 180.7031402587891 -4.453125 C 180.7031402587891 -3.679458379745483 180.9148101806641 -3.111999988555908 181.3502655029297 -2.718374967575073 C 181.8087768554688 -2.303916692733765 182.5110168457031 -2.09375 183.4375152587891 -2.09375 C 184.9901885986328 -2.09375 186.1630249023438 -2.507625102996826 187.0230255126953 -3.359041690826416 C 187.8801879882812 -4.207749843597412 188.2968902587891 -5.388500213623047 188.2968902587891 -6.96875 L 188.2968902587891 -7.597622871398926 L 186.3702239990234 -7.516499996185303 L 186.3702239990234 -7.516507625579834 Z M 168.6718902587891 1.3125 C 165.9208068847656 1.3125 163.7291870117188 0.4346249997615814 162.1579437255859 -1.296708345413208 C 160.6119842529297 -3.000124931335449 159.8281402587891 -5.376375198364258 159.8281402587891 -8.359375 C 159.8281402587891 -11.29183292388916 160.5770568847656 -13.69437503814697 162.0540618896484 -15.5002498626709 C 163.5802764892578 -17.3663330078125 165.6543579101562 -18.3125 168.2187652587891 -18.3125 C 170.5213928222656 -18.3125 172.3733978271484 -17.48624992370605 173.7232360839844 -15.85666656494141 C 175.0266418457031 -14.28320789337158 175.6875152587891 -12.15504169464111 175.6875152587891 -9.53125 L 175.6875152587891 -7.28125 L 163.5006866455078 -7.28125 C 163.6415405273438 -5.69455099105835 164.0907592773438 -4.456838130950928 164.8408966064453 -3.593291759490967 C 165.7173919677734 -2.584249973297119 166.9705200195312 -2.09375 168.6718902587891 -2.09375 C 169.575439453125 -2.09375 170.3739318847656 -2.156500101089478 171.0452270507812 -2.280291557312012 C 171.7118530273438 -2.403208255767822 172.5868072509766 -2.679333448410034 173.6457366943359 -3.100958347320557 L 175.0156402587891 -3.646374940872192 L 175.0156402587891 -0.1099583357572556 L 174.4143524169922 0.1514583379030228 C 173.3913116455078 0.5962499976158142 172.4249420166016 0.9049999713897705 171.5421447753906 1.069125056266785 C 170.6734008789062 1.230625033378601 169.7077331542969 1.3125 168.6718902587891 1.3125 Z M 163.6837463378906 -10.65625 L 172.0030364990234 -10.65625 C 171.8871917724609 -11.91564655303955 171.5422515869141 -12.92442035675049 170.9733123779297 -13.66333293914795 C 170.3131408691406 -14.52070808410645 169.412109375 -14.9375 168.2187652587891 -14.9375 C 166.8638153076172 -14.9375 165.8168182373047 -14.51441669464111 165.0179748535156 -13.64408302307129 C 164.3627624511719 -12.9302282333374 163.9157409667969 -11.92798137664795 163.6837463378906 -10.65625 Z M 99.87502288818359 1.3125 C 96.8046875 1.3125 94.35068511962891 0.4330416619777679 92.58123016357422 -1.301499962806702 C 90.8062744140625 -3.041458368301392 89.90627288818359 -5.500166893005371 89.90627288818359 -8.609375 C 89.90627288818359 -11.78066635131836 90.73314666748047 -14.29199981689453 92.36393737792969 -16.0736255645752 C 94.01789855957031 -17.88062477111816 96.30844116210938 -18.796875 99.17189788818359 -18.796875 C 101.9083557128906 -18.796875 104.0887298583984 -17.98595809936523 105.6525192260742 -16.38662528991699 C 107.2102279663086 -14.79354190826416 108.0000228881836 -12.59745788574219 108.0000228881836 -9.859375 L 108.0000228881836 -6.546875 L 96.86865997314453 -6.546875 C 97.01374053955078 -5.944969654083252 97.27238464355469 -5.459558010101318 97.64948272705078 -5.077208518981934 C 98.20885467529297 -4.510083198547363 99.00839233398438 -4.234375 100.0937728881836 -4.234375 C 101.0645599365234 -4.234375 101.9921875 -4.335958480834961 102.8508987426758 -4.536333560943604 C 103.716064453125 -4.738208293914795 104.6378555297852 -5.067333221435547 105.5907287597656 -5.514625072479248 L 107.0156478881836 -6.18345832824707 L 107.0156478881836 -0.3038333356380463 L 106.4628524780273 -0.02745833247900009 C 105.5580215454102 0.4249583184719086 104.5791015625 0.76583331823349 103.5533142089844 0.9856250286102295 C 102.541145324707 1.202541708946228 101.3036041259766 1.3125 99.87502288818359 1.3125 Z M 97.02062225341797 -11.71875 L 101.4082412719727 -11.71875 C 101.3003616333008 -12.14925193786621 101.1225204467773 -12.49952125549316 100.8759765625 -12.76554203033447 C 100.4763565063477 -13.1966667175293 99.92918395996094 -13.40625 99.20314788818359 -13.40625 C 98.47427368164062 -13.40625 97.95643615722656 -13.20683288574219 97.57356262207031 -12.77866649627686 C 97.33091735839844 -12.50735759735107 97.14615631103516 -12.15274047851562 97.02062225341797 -11.71875 Z M 58.68751907348633 1.3125 C 56.74448013305664 1.3125 55.17456436157227 0.7309583425521851 54.02135467529297 -0.4160000085830688 C 52.86672973632812 -1.564375042915344 52.28126907348633 -3.180291652679443 52.28126907348633 -5.21875 C 52.28126907348633 -7.41587495803833 53.08327102661133 -9.074250221252441 54.66497802734375 -10.14770793914795 C 56.13422775268555 -11.14491653442383 58.22539520263672 -11.67904186248779 61.05793762207031 -11.78062534332275 L 63.12019348144531 -11.84441566467285 C 63.06792068481445 -12.89882850646973 62.58600234985352 -13.296875 61.40626907348633 -13.296875 C 60.15864562988281 -13.296875 58.64014434814453 -12.90041637420654 56.89285278320312 -12.11849975585938 L 56.01156234741211 -11.72408294677734 L 53.57956314086914 -16.68437576293945 L 54.44260406494141 -17.13599967956543 C 56.5881462097168 -18.25883293151855 58.99414443969727 -18.828125 61.59376907348633 -18.828125 C 64.16310119628906 -18.828125 66.18955993652344 -18.23708343505859 67.61693572998047 -17.0714168548584 C 69.10493469238281 -15.85620880126953 69.85939788818359 -14.0290412902832 69.85939788818359 -11.640625 L 69.85939788818359 1 L 64.84672546386719 1 L 64.22218322753906 -0.6089667081832886 C 63.64022064208984 -0.06368403136730194 63.03933334350586 0.3527494966983795 62.42581176757812 0.6350416541099548 C 61.43506240844727 1.090916633605957 60.21227264404297 1.3125 58.68751907348633 1.3125 Z M 63.12501907348633 -7.059286594390869 L 62.31514739990234 -7.031833171844482 C 60.83351898193359 -6.987249851226807 60.10177230834961 -6.692541599273682 59.74810409545898 -6.453125 C 59.47981262207031 -6.271541595458984 59.17189407348633 -5.963583469390869 59.17189407348633 -5.1875 C 59.17189407348633 -4.612041473388672 59.26852035522461 -4.171875 60.48439407348633 -4.171875 C 61.32802200317383 -4.171875 61.96772766113281 -4.392416477203369 62.4400634765625 -4.846166610717773 C 62.90097808837891 -5.28891658782959 63.12501907348633 -5.88100004196167 63.12501907348633 -6.65625 L 63.12501907348633 -7.059286594390869 Z M 24.82814598083496 1.3125 C 22.88510322570801 1.3125 21.31518745422363 0.7309583425521851 20.16197967529297 -0.4160000085830688 C 19.00735473632812 -1.564375042915344 18.42189598083496 -3.180291652679443 18.42189598083496 -5.21875 C 18.42189598083496 -7.41587495803833 19.22389602661133 -9.074250221252441 20.80560493469238 -10.14770793914795 C 22.27485466003418 -11.14491653442383 24.36602020263672 -11.67904186248779 27.19856262207031 -11.78062534332275 L 29.26081848144531 -11.84441566467285 C 29.20854568481445 -12.89882850646973 28.72662925720215 -13.296875 27.54689598083496 -13.296875 C 26.29927062988281 -13.296875 24.78077125549316 -12.90041637420654 23.03347969055176 -12.11849975585938 L 22.15218734741211 -11.72408294677734 L 19.72018814086914 -16.68437576293945 L 20.58322906494141 -17.13599967956543 C 22.7287712097168 -18.25883293151855 25.1347713470459 -18.828125 27.73439598083496 -18.828125 C 30.30373001098633 -18.828125 32.3301887512207 -18.23708343505859 33.75756072998047 -17.0714168548584 C 35.24556350708008 -15.85620880126953 36.00001907348633 -14.0290412902832 36.00001907348633 -11.640625 L 36.00001907348633 1 L 30.98735427856445 1 L 30.36280632019043 -0.6089667081832886 C 29.78084754943848 -0.06368403136730194 29.17995834350586 0.3527494966983795 28.56643676757812 0.6350416541099548 C 27.57568740844727 1.090916633605957 26.35289573669434 1.3125 24.82814598083496 1.3125 Z M 29.26564598083496 -7.059286594390869 L 28.45577049255371 -7.031833171844482 C 26.97414588928223 -6.987249851226807 26.24239540100098 -6.692541599273682 25.88872909545898 -6.453125 C 25.62043762207031 -6.271541595458984 25.31252098083496 -5.963583469390869 25.31252098083496 -5.1875 C 25.31252098083496 -4.612041473388672 25.40914535522461 -4.171875 26.62502098083496 -4.171875 C 27.4686450958252 -4.171875 28.10835456848145 -4.392416477203369 28.58068656921387 -4.846166610717773 C 29.04160499572754 -5.28891658782959 29.26564598083496 -5.88100004196167 29.26564598083496 -6.65625 L 29.26564598083496 -7.059286594390869 Z M 285.6562805175781 1 L 282.1250305175781 1 L 282.1250305175781 -11.140625 C 282.1250305175781 -12.52558326721191 281.8722839355469 -13.55525016784668 281.3940734863281 -14.1182918548584 C 280.9437255859375 -14.64850044250488 280.221923828125 -14.90625 279.1875305175781 -14.90625 C 277.73828125 -14.90625 276.7226867675781 -14.54850006103516 276.082763671875 -13.81258296966553 C 275.4161376953125 -13.04599952697754 275.0781555175781 -11.7475004196167 275.0781555175781 -9.953125 L 275.0781555175781 1 L 271.5000305175781 1 L 271.5000305175781 -11.609375 C 271.5000305175781 -13.92024993896484 270.6215209960938 -14.90625 268.5625305175781 -14.90625 C 267.0921325683594 -14.90625 266.0769348144531 -14.52299976348877 265.4588928222656 -13.73458290100098 C 264.7915344238281 -12.88325023651123 264.4531555175781 -11.41650009155273 264.4531555175781 -9.375 L 264.4531555175781 1 L 260.9062805175781 1 L 260.9062805175781 -17.984375 L 264.0564880371094 -17.984375 L 264.2106323242188 -16.89049339294434 C 264.4956665039062 -17.11747741699219 264.8046875 -17.32038879394531 265.1369323730469 -17.49850082397461 C 266.1443176269531 -18.03862571716309 267.2653503417969 -18.3125 268.4687805175781 -18.3125 C 269.9808654785156 -18.3125 271.2599487304688 -18.01283264160156 272.2704772949219 -17.42179107666016 C 272.8606262207031 -17.07665252685547 273.3612976074219 -16.63395500183105 273.7687683105469 -16.09816932678223 C 274.2488403320312 -16.61905670166016 274.8028564453125 -17.05592918395996 275.4263610839844 -17.40424919128418 C 276.5051574707031 -18.00691604614258 277.739013671875 -18.3125 279.0937805175781 -18.3125 C 281.226806640625 -18.3125 282.8759765625 -17.70666694641113 283.9953918457031 -16.51183319091797 C 285.0974731445312 -15.33545875549316 285.6562805175781 -13.5178337097168 285.6562805175781 -11.109375 L 285.6562805175781 1 Z M 233.1250152587891 1 L 229.5781402587891 1 L 229.5781402587891 -17.984375 L 232.8409423828125 -17.984375 L 232.9096984863281 -16.63652229309082 C 233.2132263183594 -16.93680381774902 233.5269165039062 -17.18976020812988 233.8527221679688 -17.39766693115234 C 234.8039398193359 -18.00470924377441 235.9522247314453 -18.3125 237.2656402587891 -18.3125 C 238.0393524169922 -18.3125 238.8760681152344 -18.23374938964844 239.7526397705078 -18.07841682434082 L 240.7591857910156 -17.9000415802002 L 240.0561828613281 -14.38487529754639 L 239.0387268066406 -14.63924980163574 C 238.4129791259766 -14.79566669464111 237.7533111572266 -14.875 237.0781402587891 -14.875 C 235.9519805908203 -14.875 235.0478057861328 -14.4020414352417 234.3140258789062 -13.42912483215332 C 233.5250549316406 -12.38304138183594 233.1250152587891 -11.01904201507568 233.1250152587891 -9.375 L 233.1250152587891 1 Z M 151.9062652587891 1 L 148.3593902587891 1 L 148.3593902587891 -17.984375 L 151.6221923828125 -17.984375 L 151.6909484863281 -16.63652038574219 C 151.9944763183594 -16.93680381774902 152.3081665039062 -17.18976020812988 152.6339721679688 -17.39766693115234 C 153.5851898193359 -18.00470924377441 154.7334747314453 -18.3125 156.0468902587891 -18.3125 C 156.8206024169922 -18.3125 157.6573181152344 -18.23374938964844 158.5338897705078 -18.07841682434082 L 159.5404357910156 -17.9000415802002 L 158.8374328613281 -14.38487529754639 L 157.8199768066406 -14.63924980163574 C 157.1942291259766 -14.79566669464111 156.5345611572266 -14.875 155.8593902587891 -14.875 C 154.7332305908203 -14.875 153.8290557861328 -14.4020414352417 153.0952758789062 -13.42912483215332 C 152.3063049316406 -12.38304138183594 151.9062652587891 -11.01904201507568 151.9062652587891 -9.375 L 151.9062652587891 1 Z M 136.6875152587891 1 L 128.6875152587891 1 L 128.6875152587891 -23.84375 L 135.9531402587891 -23.84375 C 139.0205230712891 -23.84375 141.2465667724609 -23.31133270263672 142.7585144042969 -22.21608352661133 C 144.3495635986328 -21.06354141235352 145.1562652587891 -19.32962417602539 145.1562652587891 -17.0625 C 145.1562652587891 -15.48754119873047 144.6603546142578 -14.14829158782959 143.6822662353516 -13.08187484741211 C 143.3397369384766 -12.70839500427246 142.9429321289062 -12.38221836090088 142.4935760498047 -12.10415458679199 C 143.1460266113281 -11.78736782073975 143.6977996826172 -11.39903259277344 144.1452331542969 -10.94075012207031 C 145.1893615722656 -9.871292114257812 145.7187652587891 -8.398249626159668 145.7187652587891 -6.5625 C 145.7187652587891 -4.152583122253418 144.8901824951172 -2.256666660308838 143.2560577392578 -0.9273750185966492 C 141.6838073730469 0.351541668176651 139.4738616943359 1 136.6875152587891 1 Z M 132.2812652587891 -2.40625 L 136.6562652587891 -2.40625 C 138.5253143310547 -2.40625 139.9138488769531 -2.764583349227905 140.7833557128906 -3.471291780471802 C 141.6020660400391 -4.136750221252441 142.0000152587891 -5.14787483215332 142.0000152587891 -6.5625 C 142.0000152587891 -7.575291633605957 142.0000152587891 -10.265625 136.3125152587891 -10.265625 L 132.2812652587891 -10.265625 L 132.2812652587891 -2.40625 Z M 132.2812652587891 -13.671875 L 136.3125152587891 -13.671875 C 138.2312774658203 -13.671875 139.6069030761719 -13.96691703796387 140.4011840820312 -14.54883289337158 C 141.1090698242188 -15.06741619110107 141.4531402587891 -15.89987468719482 141.4531402587891 -17.09375 C 141.4531402587891 -18.27216720581055 141.0785675048828 -19.05533409118652 140.2743072509766 -19.55845832824707 C 139.3419799804688 -20.14175033569336 137.8671112060547 -20.4375 135.8906402587891 -20.4375 L 132.2812652587891 -20.4375 L 132.2812652587891 -13.671875 Z M 116.6406478881836 1 L 109.8750228881836 1 L 109.8750228881836 -25.3125 L 116.6406478881836 -25.3125 L 116.6406478881836 1 Z M 83.50160217285156 1 L 77.23281097412109 1 L 69.81447601318359 -18.46875 L 76.96685791015625 -18.46875 L 80.37455749511719 -8.419200897216797 L 83.7664794921875 -18.46875 L 90.91993713378906 -18.46875 L 83.50160217285156 1 Z M 45.67189407348633 1 L 38.90626907348633 1 L 38.90626907348633 -18.46875 L 44.30451965332031 -18.46875 L 44.74838638305664 -16.6144962310791 C 45.15241622924805 -17.03795051574707 45.60497283935547 -17.41297912597656 46.10360336303711 -17.73695755004883 C 47.18610382080078 -18.44029235839844 48.38139724731445 -18.796875 49.65626907348633 -18.796875 C 50.38114547729492 -18.796875 50.97768783569336 -18.74324989318848 51.48006439208984 -18.63299942016602 L 52.3323974609375 -18.4459171295166 L 51.80664443969727 -11.90829181671143 L 50.64535522460938 -12.22212505340576 C 50.34677124023438 -12.30283355712891 49.9614372253418 -12.34375 49.50001907348633 -12.34375 C 48.22747802734375 -12.34375 47.28618621826172 -12.04683303833008 46.62247848510742 -11.43604183197021 C 45.98281097412109 -10.84741687774658 45.67189407348633 -10.01479148864746 45.67189407348633 -8.890625 L 45.67189407348633 1 Z M 17.98439598083496 1 L 1.875020861625671 1 L 1.875020861625671 -23.84375 L 8.718770980834961 -23.84375 L 8.718770980834961 -5 L 17.98439598083496 -5 L 17.98439598083496 1 Z" stroke="none" fill="#fff"/></g><g transform="translate(-110 6)"><path d="M83,1l18.244,22.769L83,42.4h9.681l18.244-18.629L92.681,1Z" transform="translate(41.743 12.602)" fill-rule="evenodd" fill="url(#a)"/><path d="M83,1l18.244,22.769L83,42.4h9.681l18.244-18.629L92.681,1Z" transform="translate(55.743 12.602)" fill-rule="evenodd" fill="url(#a)"/><path d="M83,1l18.244,22.769L83,42.4h9.681l18.244-18.629L92.681,1Z" transform="translate(69.743 12.602)" fill-rule="evenodd" fill="url(#a)"/></g></g></svg>