<svg xmlns="http://www.w3.org/2000/svg" xmlns:xlink="http://www.w3.org/1999/xlink" width="420" height="80" viewBox="0 0 420 80"><defs><linearGradient id="a" x1="0.5" x2="0.5" y2="1" gradientUnits="objectBoundingBox"><stop offset="0" stop-color="#ff2d20"/><stop offset="1" stop-color="#c900ae"/></linearGradient><clipPath id="e"><rect width="420" height="80"/></clipPath></defs><g id="d" clip-path="url(#e)"><path d="M2.875,0V-22.844H7.719V-4h9.266V0Zm28.8,0L30.75-2.375h-.125a7.039,7.039,0,0,1-2.477,2.1,8,8,0,0,1-3.32.586,5.369,5.369,0,0,1-3.961-1.437,5.52,5.52,0,0,1-1.445-4.094,4.61,4.61,0,0,1,1.945-4.1,11.272,11.272,0,0,1,5.867-1.461l3.031-.094v-.766q0-2.656-2.719-2.656a12.389,12.389,0,0,0-4.922,1.266L21.047-16.25a14.2,14.2,0,0,1,6.688-1.578A8.33,8.33,0,0,1,33.125-16.3,5.659,5.659,0,0,1,35-11.641V0ZM30.266-8.094l-1.844.063a5.9,5.9,0,0,0-3.094.75,2.356,2.356,0,0,0-1.016,2.094q0,2.016,2.313,2.016a3.662,3.662,0,0,0,2.648-.953,3.348,3.348,0,0,0,.992-2.531Zm19.391-9.7a7.685,7.685,0,0,1,1.609.141l-.359,4.469a5.459,5.459,0,0,0-1.406-.156,5.054,5.054,0,0,0-3.555,1.172,4.236,4.236,0,0,0-1.273,3.281V0H39.906V-17.469h3.609l.7,2.938h.234a6.567,6.567,0,0,1,2.2-2.367A5.413,5.413,0,0,1,49.656-17.8ZM65.531,0l-.922-2.375h-.125a7.039,7.039,0,0,1-2.477,2.1,8,8,0,0,1-3.32.586,5.369,5.369,0,0,1-3.961-1.437,5.52,5.52,0,0,1-1.445-4.094,4.61,4.61,0,0,1,1.945-4.1,11.272,11.272,0,0,1,5.867-1.461l3.031-.094v-.766q0-2.656-2.719-2.656a12.389,12.389,0,0,0-4.922,1.266L54.906-16.25a14.2,14.2,0,0,1,6.688-1.578A8.33,8.33,0,0,1,66.984-16.3a5.659,5.659,0,0,1,1.875,4.656V0ZM64.125-8.094l-1.844.063a5.9,5.9,0,0,0-3.094.75,2.356,2.356,0,0,0-1.016,2.094q0,2.016,2.313,2.016a3.662,3.662,0,0,0,2.648-.953,3.348,3.348,0,0,0,.992-2.531ZM77.922,0,71.266-17.469H76.25l3.375,9.953a17.76,17.76,0,0,1,.7,3.578h.094a15.56,15.56,0,0,1,.7-3.578l3.359-9.953h4.984L82.813,0ZM99.2-14.406a3.023,3.023,0,0,0-2.375.961,4.447,4.447,0,0,0-.984,2.727h6.688a3.973,3.973,0,0,0-.922-2.727A3.121,3.121,0,0,0,99.2-14.406ZM99.875.313a9.016,9.016,0,0,1-6.594-2.328,8.815,8.815,0,0,1-2.375-6.594A9.7,9.7,0,0,1,93.1-15.4a7.817,7.817,0,0,1,6.07-2.4,7.694,7.694,0,0,1,5.766,2.109A7.98,7.98,0,0,1,107-9.859v2.313H95.734a4.587,4.587,0,0,0,1.2,3.172,4.233,4.233,0,0,0,3.156,1.141,13.1,13.1,0,0,0,2.984-.328,14.933,14.933,0,0,0,2.938-1.047V-.922a11.19,11.19,0,0,1-2.672.93A16.846,16.846,0,0,1,99.875.313ZM115.641,0h-4.766V-24.312h4.766Zm14.047-22.844h6.266q4.234,0,6.219,1.438a5.011,5.011,0,0,1,1.984,4.344,4.7,4.7,0,0,1-1.211,3.3,5.9,5.9,0,0,1-3.539,1.7v.094a6.9,6.9,0,0,1,4.023,1.727,5.044,5.044,0,0,1,1.289,3.68A5.905,5.905,0,0,1,142.625-1.7,9.184,9.184,0,0,1,136.688,0h-7Zm1.594,10.172h5.031a8.026,8.026,0,0,0,4.68-1.07,3.877,3.877,0,0,0,1.461-3.352,3.614,3.614,0,0,0-1.648-3.312,9.4,9.4,0,0,0-4.914-1.031h-4.609Zm0,1.406v9.859h5.375Q143-1.406,143-6.562q0-4.7-6.687-4.7Zm24.766-6.047a13.292,13.292,0,0,1,2.313.219l-.3,1.484a9.05,9.05,0,0,0-2.2-.266,4.278,4.278,0,0,0-3.562,1.844,7.516,7.516,0,0,0-1.391,4.656V0h-1.547V-16.984h1.313l.156,3.063h.109a7.2,7.2,0,0,1,2.234-2.633A5.234,5.234,0,0,1,156.047-17.312ZM168.672.313A7.4,7.4,0,0,1,162.9-1.969a9.169,9.169,0,0,1-2.07-6.391,9.963,9.963,0,0,1,2-6.508,6.6,6.6,0,0,1,5.391-2.445,5.82,5.82,0,0,1,4.734,2.094,8.646,8.646,0,0,1,1.734,5.688v1.25H162.453a8.035,8.035,0,0,0,1.633,5.344,5.747,5.747,0,0,0,4.586,1.844,14.224,14.224,0,0,0,2.555-.2,15.525,15.525,0,0,0,2.789-.875V-.766a12.44,12.44,0,0,1-2.656.852A14.743,14.743,0,0,1,168.672.313Zm-.453-16.25a5.089,5.089,0,0,0-3.937,1.617,7.627,7.627,0,0,0-1.734,4.664h10.5a7.406,7.406,0,0,0-1.281-4.617A4.226,4.226,0,0,0,168.219-15.937ZM189.688,0,189.3-2.687h-.125a8.066,8.066,0,0,1-2.633,2.32,7.033,7.033,0,0,1-3.2.68,5.528,5.528,0,0,1-3.891-1.281,4.583,4.583,0,0,1-1.391-3.547,4.377,4.377,0,0,1,2.07-3.859,11.257,11.257,0,0,1,5.992-1.453l3.234-.094v-1.125a5.776,5.776,0,0,0-.984-3.656,3.817,3.817,0,0,0-3.172-1.234,10.609,10.609,0,0,0-4.891,1.313l-.578-1.344a12.943,12.943,0,0,1,5.531-1.312,5.514,5.514,0,0,1,4.18,1.453,6.384,6.384,0,0,1,1.383,4.531V0Zm-6.25-1.094a5.829,5.829,0,0,0,4.289-1.555,5.806,5.806,0,0,0,1.57-4.32V-8.641l-2.969.125a11.215,11.215,0,0,0-5.1,1.117A3.218,3.218,0,0,0,179.7-4.453a3.168,3.168,0,0,0,.977,2.477A3.969,3.969,0,0,0,183.438-1.094Zm19.109-16.219a7.052,7.052,0,0,1,3.188.672,6.344,6.344,0,0,1,2.406,2.3h.094q-.094-1.969-.094-3.859v-6.109h1.531V0h-1.016l-.391-2.594h-.125A6.285,6.285,0,0,1,202.578.313,6.663,6.663,0,0,1,197.2-1.875q-1.859-2.188-1.859-6.375,0-4.406,1.844-6.734A6.429,6.429,0,0,1,202.547-17.312Zm0,1.406a4.805,4.805,0,0,0-4.18,1.953,9.679,9.679,0,0,0-1.4,5.672q0,7.219,5.609,7.219A5.091,5.091,0,0,0,206.8-2.734q1.344-1.672,1.344-5.516v-.266q0-3.937-1.32-5.664A5.039,5.039,0,0,0,202.547-15.906ZM222.156.313a7.273,7.273,0,0,1-5.7-2.3,9.251,9.251,0,0,1-2.062-6.406,9.406,9.406,0,0,1,2.141-6.57,7.527,7.527,0,0,1,5.859-2.352,11.781,11.781,0,0,1,4.219.766l-.422,1.375a12.383,12.383,0,0,0-3.828-.734,5.813,5.813,0,0,0-4.734,1.93,8.459,8.459,0,0,0-1.609,5.555,8.2,8.2,0,0,0,1.609,5.383,5.517,5.517,0,0,0,4.5,1.945,11.045,11.045,0,0,0,4.3-.828V-.484A9.738,9.738,0,0,1,222.156.313Zm15.109-17.625a13.292,13.292,0,0,1,2.313.219l-.3,1.484a9.05,9.05,0,0,0-2.2-.266,4.278,4.278,0,0,0-3.562,1.844,7.516,7.516,0,0,0-1.391,4.656V0h-1.547V-16.984h1.313l.156,3.063h.109a7.2,7.2,0,0,1,2.234-2.633A5.234,5.234,0,0,1,237.266-17.312Zm7.109.328v11a5.372,5.372,0,0,0,1.078,3.727A4.352,4.352,0,0,0,248.8-1.094a5.837,5.837,0,0,0,4.461-1.531q1.43-1.531,1.43-4.984v-9.375h1.531V0h-1.312l-.281-2.344h-.094Q252.875.313,248.641.313q-5.8,0-5.8-6.2V-16.984ZM283.125,0V-11.141a5.547,5.547,0,0,0-.969-3.625,3.68,3.68,0,0,0-2.969-1.141,4.846,4.846,0,0,0-3.859,1.438,6.777,6.777,0,0,0-1.25,4.516V0H272.5V-11.609q0-4.3-3.937-4.3a4.641,4.641,0,0,0-3.891,1.555q-1.219,1.555-1.219,4.977V0h-1.547V-16.984h1.281l.328,2.328h.094a4.869,4.869,0,0,1,2-1.961,5.955,5.955,0,0,1,2.859-.7q4.016,0,5.156,3.016h.063a5.774,5.774,0,0,1,2.227-2.234,6.408,6.408,0,0,1,3.18-.781,5.45,5.45,0,0,1,4.172,1.484q1.391,1.484,1.391,4.719V0Zm14.2-17.312A6.479,6.479,0,0,1,302.7-15.07q1.8,2.242,1.8,6.555a9.993,9.993,0,0,1-1.9,6.531,6.537,6.537,0,0,1-5.336,2.3A7.014,7.014,0,0,1,294-.437a5.719,5.719,0,0,1-2.3-2.125h-.141L291.125,0h-.969V-24.312H291.7V-18.2q0,1.375-.062,2.531l-.047,1.328h.109a6.2,6.2,0,0,1,2.336-2.25A6.987,6.987,0,0,1,297.328-17.312Zm-.031,1.406q-3,0-4.3,1.719t-1.3,5.672v.266q0,3.844,1.352,5.516a5.1,5.1,0,0,0,4.211,1.672,4.833,4.833,0,0,0,4.188-1.945,9.348,9.348,0,0,0,1.406-5.539Q302.859-15.906,297.3-15.906ZM319.734-4.422A4.037,4.037,0,0,1,318-.914,8.442,8.442,0,0,1,313.078.313a11.738,11.738,0,0,1-5.406-1.047V-2.406a11.932,11.932,0,0,0,5.406,1.281,7.132,7.132,0,0,0,3.82-.836,2.541,2.541,0,0,0,1.3-2.227,2.713,2.713,0,0,0-1.039-2.156,11.426,11.426,0,0,0-3.414-1.719,19.556,19.556,0,0,1-3.578-1.586,4.944,4.944,0,0,1-1.555-1.5,3.768,3.768,0,0,1-.523-2.039,3.483,3.483,0,0,1,1.6-3.016,7.781,7.781,0,0,1,4.477-1.109,13.4,13.4,0,0,1,5.219,1.031l-.578,1.406a12.239,12.239,0,0,0-4.641-1.031,6.72,6.72,0,0,0-3.3.688,2.11,2.11,0,0,0-1.219,1.906,2.639,2.639,0,0,0,.945,2.125,13.179,13.179,0,0,0,3.7,1.781,18.182,18.182,0,0,1,3.344,1.492,4.861,4.861,0,0,1,1.57,1.508A3.687,3.687,0,0,1,319.734-4.422Z" transform="translate(85 53)"/><g transform="translate(-110 6)"><path d="M83,1l18.244,22.769L83,42.4h9.681l18.244-18.629L92.681,1Z" transform="translate(41.743 12.602)" fill-rule="evenodd" fill="url(#a)"/><path d="M83,1l18.244,22.769L83,42.4h9.681l18.244-18.629L92.681,1Z" transform="translate(55.743 12.602)" fill-rule="evenodd" fill="url(#a)"/><path d="M83,1l18.244,22.769L83,42.4h9.681l18.244-18.629L92.681,1Z" transform="translate(69.743 12.602)" fill-rule="evenodd" fill="url(#a)"/></g></g></svg>